<mxfile host="65bd71144e">
    <diagram id="mbkKpJFLCK-diL2DMaxm" name="ページ1">
        <mxGraphModel dx="1154" dy="426" grid="1" gridSize="10" guides="1" tooltips="1" connect="1" arrows="1" fold="1" page="1" pageScale="1" pageWidth="827" pageHeight="1169" math="0" shadow="0">
            <root>
                <mxCell id="0"/>
                <mxCell id="1" parent="0"/>
                <mxCell id="5" value="" style="whiteSpace=wrap;html=1;" parent="1" vertex="1">
                    <mxGeometry x="-780" y="130" width="639" height="398.5" as="geometry"/>
                </mxCell>
                <mxCell id="6" value="" style="shape=image;verticalLabelPosition=bottom;labelBackgroundColor=default;verticalAlign=top;aspect=fixed;imageAspect=0;image=data:image/png,iVBORw0KGgoAAAANSUhEUgAAAa8AAAI0CAYAAACqIqYcAAAABHNCSVQICAgIfAhkiAAAABl0RVh0U29mdHdhcmUAZ25vbWUtc2NyZWVuc2hvdO8Dvz4AAAAzaVRYdENyZWF0aW9uIFRpbWUAAAAAADIwMjXlubQwM+aciDEz5pelIDE35pmCNTHliIYzMOenkhhCjqcAACAASURBVHic7N15XI7Z/z/wV/supk0lsrVZpqHFUpMl+5IhU4gQaRqNLeSjYWwz1kFji9DYJkKEKRJqmqIYSwslpJCKpH27O78/+nV976v7vq0ZbvN+Ph7Xg+uc65zr3Ev3+z7nOte5ZRhjDIQQQogUkf3YDSCEEELeFgUvQgghUoeCFyGEEKlDwYsQQojUoeBFCCFE6lDwIoQQInUoeBFCCJE6FLwIIYRIHQpehBBCpA4FL0IIIVKHghchhBCpQ8GLEEKI1KHgRQghROpQ8CKEECJ1KHgRQgiROhS8CCGESB0KXoQQQqQOBS9CCCFSh4IXIYQQqUPBixBCiNSh4EUIIUTqUPAihBAidSh4EUIIkToUvAghhEgdCl6EEEKkDgUvQgghUoeCFyGEEKlDwYsQQojUoeBFCCFE6lDwIoQQInUoeBFCCJE6FLwIIYRIHQpehBBCpA4FL0LIv+bhw4eorq7+2M0gnwEZxhj72I0ghHwavvnmG1RUVAAAIiMj37p8YmIi8vPzAQCDBg2CgoICl5efn4/WrVtDIBCgW7duiI+Ph5ycXNM0nPznUPAihHDU1dVRVlYGAHiXj4bBgwfj7NmzAICCggJoa2tzeX5+flizZg0AwNTUFM7OzmCMoa6uDowxblu0aBFatGjRBI+GfM4oeBHyH1BaWorZs2e/9rjff/8dtbW1AAAPD4/XHv/tt99i4MCB3L6k4JWVlQVzc3NUVla+ts4HDx7A2Nj4tceR/zjWBG7fvs0AcFtYWFhTVCvWihUreOd60y05OfmtzlNRUcHat2/PlZeXl5dYx+TJk3nn2rlzZ1M81A+me/fuIs/P4sWLxR67YMECkWO7d+/+r7Tz7t27vPPevn27Sep1cXHh6pwwYUKT1PmpKygoeKe/m9dt69at451n0KBBXF5BQQFjjDGBQMD69OnDpauoqDA1NTVuU1RU5PLk5ORYXl7ex3iKiJSRb5II+BlSVlbGtm3bMGjQIABAbW0tfHx8cPHiRd5xSUlJ+P3337n9Hj16YNq0af9qW5tC48fV4NKlS/9uQ8gHISMjAzU1NW6fMQYZGRluv7y8nEtTVVUFAG74UFZWFioqKqirq4OsLH+Ol6KiInJycnDmzBkAQE5ODpf3+++/Q11dHbdv3+beR7169UJMTAzk5es/ep4/fw47OzvcuXMHALBo0SLo6uo28aMnn6WmiID/Zs9rzZo1vG9tampqTElJiXf+xvlqamosLS3tnc4n/C0dAPvjjz+4vLq6OmZra8v71njjxo2meqgfjLiel4KCAistLeUdV1JSwuTl5ann9Rn66aefmI2NDdu1axcrLS1lzZo1YwCYlZUVY6x+5EH49Q4ODmZGRkbswoULInVFRES8cU9NSUnplX+7qqqqvPzKysp/+6khUkLqgpc4u3bt4p2/YbiiKTx58oRpampydRsaGnIf8sHBwbzzzp49u8nO+yGJC14AWGRkJO+4P//8U+xxFLykW15eHheslJWVWXx8PPd8jB8/njHGD16Ng0vjAPY2wettt4qKio/xFBEpQPd5vYa+vj5WrVrF7T9+/BgrVqxASUkJ/Pz8uHQDAwMsX778YzTxvZiZmXH/bzx0KDxkaG5u/m81iXxgXl5eKC4uBgBMmzYN586d4/J69uwpcnz37t3h7+8PoH54cfjw4bz3Rq9evZCUlISkpCRe+bFjx/LqmT59OmbNmgUVFRUA9X8zwu8rLy8vzJo1C23btn3/B0k+f00RAd+35/Xs2TO2YMEC1rlzZ6ampsZkZWVZs2bNmKWlJVu2bBkrLy9/Zfm36XklJyezCRMmMH19faagoMD09PSYk5MTO3v2rMQyAoGAWVtbc/UrKiqysWPH8s55+PDht3rMH5Nwz8vT05P7v42NDe84GxsbLm/GjBmv7HmlpKSwSZMmsbZt2zIlJSUmJyfHtLS02Ndff8327dsncvxvv/3G6/3cvHmTWVtbM0VFRWZgYMB27dr1yp7Xli1beHkeHh68+isqKtjPP//MLCwsmLKyMmvZsiWbNm0ay83NfaOeV0xMDBs/fjz3eLS0tFj//v3Z3r17WW1tLe/Yvn37cvVt2LCBl3fo0CEuT0ZGRuS92b9/fy5/6dKlIq9PVFQUy8rKYlOmTGEGBgZMSUmJmZiYsOXLl7/270KczZs3c3Xr6emx5ORkpqWlxfXCCgsLueev4biGoUThyTvNmzdnd+/eFalfeMJGYmIiMzQ05PZzc3OZQCDghqKHDx/O3N3dufwXL14wxhgbNmwY9bzIa3304PXs2TNmYWHxyqEDa2vrV459v2nwOnjwIFNQUJB4njlz5kg8xz///MPk5OTElhs4cOAbP95PgfCHY0BAAGvRogUD6q/ZvXz5kjHGWHFxMfcho6WlxQICAiQGrytXrjB1dfVXvoY+Pj68MsLBy9HRkenp6fGOj4yMlBi8zp49y3sthg0bxmpqari6i4uLedcihTd9fX1mZWUlMXjV1NSw77///pWPxc7Ojvce27hxI5c3aNAgXn3CXw4AsOPHj3N5ZWVlvGs+//zzj8jrs2LFCm6I733fd0ePHmWysrJc+V27djFLS0tu/6uvvmKurq7M09OT+fj4cOk9evTg6pg6dSqX3qlTJ1ZSUsI7R+PZhidOnOAFr5iYGG5/3rx5vODVEDgpeJE38dGD13fffceVU1dXZ+PHj2fTp09nX331Fa/OkJAQiXW8SfD6559/eFNyTU1NmYeHB+vXrx+v7N69eyWeZ9asWSIfIEpKSmK/gX5o58+fZwkJCe9UVvjD8bfffmMjRozg9k+dOsUYY+zMmTNcmpOTEy/YNA5ewl8+jIyM2PTp09nkyZN537plZGTYkydPuDLC9TXemjdvzqqrq8UGr7S0NN41SFtbW1ZWVsZrz/Tp03nlOnbsyKZMmcJ69Oghcq7Gwcvf35+Xr6amxqytrZmuri4vvXfv3lzAvHfvHpeuoqLC+6JlYmLCKyd8XfT06dO8503c6yMjI8Pk5OTYiBEj2NSpU1nz5s159V26dOmNXvMDBw7wAv6YMWNYx44deXVt2LBB7Ovx7bffcvVUV1czBwcHLm/s2LG88wgHr7y8PN5tJA8fPmQ9e/bk9iMiInjBffbs2WzFihXM1NSUghd5rY8evCZOnMjatWvHZGRkWHR0NJcuEAhYp06duDr9/f0l1vEmwWvUqFFcfuNv6sJDUB07dmR1dXViz/PixQteAATAfH193/ixNqWUlBSmqanJ4uPj37ps4+C1du1abn/u3LmMMcbmz5/Ppa1fv15i8Hr06BEbOHAg09PTY1988QXvuc/NzeV90z9//jyX1zh4WVlZsQcPHrD8/Hx25swZxpjohI24uDjevXcmJiYir3V+fj6vdz1ixAhWVVXF5f/0008Sg1dWVhavvUOGDOGGsgQCAVuyZAmvbGBgIFdWOIBHRUUxxuon+zQOBF999RVXRrh3M3PmTLGvj6ysLO/v4ubNm7w2Nr7PSpK7d++yrl27MgDs+++/Z1u3bpU4kqCurs7k5OSYgoIC69KlC0tKSuLVlZeXx1q2bMl0dHRYUFAQ7+9FOHi1bduWV6+ZmRn3fwsLCyYQCNi6deskfomh4EVe5aMHrwaNp2k/fvyY9erVi6tz1qxZEsu+LnhVVVUxZWVl3jc+YbW1tUxFRYXLz8jIEHueTZs2ifxxdenShVVXV7/1420K33//PdPQ0BCZJfg6jYPX5cuXRT5cha/xJSYmvrLn1aDxa5icnMw0NDTEvi8aBy/hD+gGjYOXcOBSV1dn9+/fFylz9OhRXpnMzExefm1tLa8XJRy8li9fzqVraGiw/Px8kfrt7Oy4Y3r27Mml+/n5cenz589njNUPUzekNbz/ZGVlWVFREWOM3ys7d+6c2Nen8TAkY4zXM1m0aJFIviTl5eXswIED3L642aTOzs5s9+7dLDAwkG3dupVt2rSJrV+/nq1evZqtXLmSLV26lP3zzz/s5s2b3DAfY/U9snPnzon05sRtKioqbOnSpczJyYnZ29szABKH8yl4EUk+meCVnp7Otm3bxiZOnMj742zYGl8zEfa64JWWlvbaPyjh7cSJEyLnyMnJ4X0QC28///zzWz/eplBaWsrMzc2ZvLw8W758Oa83+SqNg1dNTQ1TU1PjPlyzsrK4b+Xq6uqspqbmtcGrrq6OxcfHs19++YWNGjWK6evrizxPx44d445vHLzEXdNsHLwab3///bdIGeFeZPPmzcU+/iFDhogNXt988w2XPmDAALFl16xZwx2jqKjIpf/9999c+pdffskY4w9fCg85nz59mt2/f5/b19TU5H0BEn59xH1pEx56e9ee/7Vr13jX/t5mazy0HhERIfaap7iAZGhoyBISEniv//bt25lAIGClpaWspKSEDR48mIIXea2PvsLGgwcPMGXKFMTExPDS1dTUoKioiBcvXgCAyJ39b6NhWvD7HO/j44OSkhJuX0lJCVVVVQCA5cuXY+zYsejQocMb1f/ixQtYW1u/VZskKSoqQm1tLZYsWYL9+/fj1q1bUFZWfqs65OXl0aNHD0RHR6Ourg6rVq2CQCAAUD8NumE1BEmio6Ph6emJ+/fv89L19PRQWFiImpoaAJJfQ01NTSgpKb1VmwHA19cX8fHxvLSGVSEA8BaFFaahoSE2vbCwkPu/gYGB2GOE06urq1FeXg5VVVX06NEDOjo6KCgowK1bt5CXl8fdetCqVSt4enpi8+bNAIDY2FjeShRDhgzhrb4urFmzZiJpioqK3P/ZWy5N+vDhQ/z000/Yt28f6urqeHnCK3AIq6ys5N4PANC8eXOR9pSWloqUGzBgAPLz83H16lUubfjw4Th9+jQvLTw8HI8ePeL2MzMzuf8vW7YMCxcuFDknIR81eNXW1mLIkCFIT08HAHTs2BHTpk1Dnz598NVXX8HNzQ1HjhwB8H7Bq2G5mwYxMTHo1q2bxOMbf/ifPHkSJ06c4PZtbW0xb948fPvttwDq/7i9vLxw/vz5N2qPmpoa1q9f/6bNf6XVq1fj+fPnMDc3x9atW986cDWwt7dHdHQ0ACA4OJhL//rrr19Z7u7duxgxYgT3Mxp9+/aFq6srHBwcYGpqCj09Pe4nMiS9hpI+NMX58ccf8csvv6C2thYJCQk4duwYxowZw+ULBybhYCTs6dOnYtOFlyV68uSJ2GMeP37M/V9ZWZl7b8nKymLYsGEIDg4GYwy///479yHct29fWFhYQE9PD3l5eYiJieHe8wDg5OQk8fG+z/te2M2bN7Fq1SocP36cF4iE+fj4YMWKFbwvK3/88QemTZuG8vJyAPWL9Y4aNYpXrk2bNtDU1ISDgwNSU1Nx7949AMCff/4pco7AwECRtIiICERERIht0+rVqzFjxgwKXkRUU3Tf3nXYMCoqijfE0Hi4T3j4YN68eRLred2wYVlZGW+ZI+EL7YzVT8QICQlhKSkpItevSkpKmJGREVdWTk6OXb9+nTHGH34CwIKDg9/ocTeVY8eOcUNfb3PPT+NhQ8YYu3DhgtghopiYGMYYkzhsuHjxYl668MX7uro63rXEhpmMjetr3bq12HY2HjZctWoVY4zx7jnr0KED7zUTnsEHiK7K8fLlS95sReFhw6VLl3Lpkq559e7dmzvm66+/5uUdP36cy/viiy+4/+/evZsxxpirqysD6hd5bhhmU1BQ4K6BiXt9Gu79EiY82+9VfxfC/vrrL97zYmNjw6Kjo9m3337LS+/cuTOLjY1lycnJbOjQobw8Dw8PJhAIROquq6vj7n0TnrDRVNuDBw/e6DGS/5aPusJGbm4u93/WaKHQe/fuITY2lttv+JmGd6Gqqop+/fpx+2vWrMGzZ8+4/c2bN8PV1RWdO3eGnp4eb3jQ39+fN8Tj4+MDS0tLAMCWLVt4PZ158+bx6v2QysrK4OPjgx9++AH79+/nVi14Vz169OANRwH1Q6O2travLPeq1/Dw4cNcjwyQ/BoKl3mV0aNHAwCWLl3K9XgyMzOxY8cO7hh7e3uoq6tz+zNnzuR6DQKBAHPmzMHLly/F1j9u3Dju/yUlJXB3d0dRUREAoK6uDj/99BP+/vtv7pgpU6bwyg8cOJAb/hTu9fXt25f3b21tLTfM5uDgAE1NzTd6/O/Dzs4O48ePx8CBAxEdHY0rV66gX79+CAkJwapVq7gfhUxJSYGDgwO6du3K9ZyUlJTw66+/IigoSGxPUEZGRuyPSj548AAlJSUi2+HDh3n1yMrK4tixY2KPLSkpQZs2bT7Qs0KkWlNEwMY9L2VlZbGL4zZshoaGjLH6i8bC5bp168a2bdvGFi9ezN0427BNnTpV4vnfZKp8bGwsk5GR4V04njlzJnN1deVNPfbz8+PKXL16lTed2NDQkBUXF/PqbfwTLW5ubk3xlL5WQEAA8/T0lDit/1XE9bwY408EAMDs7e25PEk9r8b3Bjk7O7PAwEDm4eEhsqiv8EobwvW1adNGbDtftcLGokWLuHRtbW1e70U4D6i/MXnkyJHc1G3h90Hj+7y8vb15ZdXU1JiNjY3ITdR9+/YVWWmDMdHeuHCvUtwEFOHnX9zr01Q9L8aY2PYyVj8ZadKkSRJ7Pt7e3rx79F5F3E+iNKisrGT+/v7c35SMjAx3k7acnBxbunQp77YGQl7lgwSv122amppc2cbLLDX+w2/4v52dncTzv+kKG1u2bOEFqsbbqFGjuBl7tbW1IgvYhoaGitRZVVUlMjtSeNrzp0hS8Gr8213Cv/ElKXi9fPmSN4VdeJOVlWWtWrXi9oXv1Xvf4FVUVMQbmhP+0lFVVcUbchbeDAwM2Jw5cyQGr6qqKjZlypRXvn/79OnDmyYubNu2bbxj3d3defnCQ9BA/Y27r3p9mjJ4MVZ/792lS5dYQEAAmzp1qshN1JI2GRkZ1rVrV+bj48N+//13duvWLbEzAYWD1/Pnzxlj9avobN68mbVp04b33tiyZQs7ceIE7zYWY2Nj9ttvv3FlCZHkowev6upqtmLFCtaxY0emoKDA1NXVmY2NDdu5cyfLzMzkysjLy7PHjx+LPf/brG149epV5ubmxlq3bs2UlJSYrq4us7e3ZwcOHOB9MxVe8geov2FVkvPnz/OObdeu3TutO/dvkRS8Gl8vEl7v8VVT5Z8+fcqmTZvGWrZsya1pOHjwYHbhwgW2Z88erpyFhYXY+t4leDHGeDe4Kisrs+zsbC6vpqaGbdy4kXXq1IkpKSkxQ0ND5u3tzQoKCkTWVRTnwoULzM3NjRkbGzMlJSX2xRdfsP79+7N9+/aJve7T4NGjR7w2N55WLtzDsbS0FFvHhwhe8fHxTFVV9ZV/l1paWuyHH35gKSkpLCkpiU2ZMuWVZWRlZdmsWbNYfn4++/bbb5mXlxcvQP3www+sd+/eIjdDGxkZcTdyM1a/+o25uTnvGDk5OWZnZ8cWLFjALVlGiDAZxt5yri0hROqUl5ejRYsWqK6u5tLk5OTQpUsX9OvXDyNGjICdnZ3IbRFlZWWIjIzEiRMnEB0dzbvGCQBBQUEYPnw4WrZsyUvX19dHXV0d8vLyuLSWLVvihx9+gI+PD++6JABUVVVh8+bNWLt2LZ4/f86l6+np4cmTJ00265J8Pih4EfIf8d1336G2thYWFhbo2rUrbG1tRYLI69y7dw+XL19GSkoK0tLSsHnzZmhpacHCwgKFhYWorKzkfkYoKSkJR48eRf/+/TFkyBCMHTv2tffzVVZW4tixYzh27BguXrwIFxcX3oQcQhpQ8CKEfBAVFRXvNQuWMYaKigqR+zQJASh4EUIIkUI0kEwIIUTqUPAihBAidSh4EUIIkToUvAghhEgdCl6EEEKkDgUvQgghUoeCFyGEEKlDwYsQQojUoeBFCCFE6lDwIoQQInUoeBFCCJE6FLwIIYRIHQpehBBCpA4FL0IIIVKHghchhBCpQ8GLEEKI1KHgRQghROpQ8CKEECJ1KHgRQgiROhS8CCGESB0KXoQQQqQOBS9CCCFSR74pKlm4cGFTVEMIIeQ/Ys2aNe9V/r2D18KFC9+7EYQQQv5b3jd20LBhI4yxj92Ej6a6uhplZWUfuxmEEPJaTTJs+DkJCAhARkYGtm7dCqA+mO3evZvL19XVxciRIwEAZWVluHjxosS6+vfvDxUVFQDA2bNnYW1tjS+++KLJ23z27Fnk5OQAAGRlZdGiRQvo6emhV69eAIAlS5Zg/vz50NDQQHFxMZo1a8aVHT9+PJYsWQIzMzMcOnQIR48exenTp1FXV4eBAwdiz549aN26Ne98WVlZmDt3Lvbv34+nT59i7dq12L59O+rq6hAREYHLly9j1apVYtsaHx8PPT09tG/fHgCQlJQEDQ0NmJmZvfZx7t+/H2FhYTh+/LjEY0pLS5Geno7Lly/j2bNnGDBgAAoLC8Uea2dnh+bNm7/ynGZmZli/fj0iIiKwcuVKtGjR4rXtJIR8eB8keJ05cwZLlizBuHHj4Ovr+9713bt3Dy4uLrh69apI3u7du3H79m2sX7/+vc5RVFQENzc33LlzB7Kyshg+fDjGjx8PZ2dn+Pj4YPHixXj69CmuXr3KBa/S0lJERkYiKioKbdq0gYmJCRITEyEQCNCzZ08ueCxbtgzh4eE4c+aMSPAqKCjAiRMncPPmTRQXF0NPTw+DBg2Co6OjSBtra2vx22+/YceOHQgKCoK9vT0AYOPGjTA3N4e2tjY2btwINzc3AEB5eTlat26NnTt3wtbWFgcPHoSqqiqCgoJw9epVpKSkAACmTp0KT09PxMXF4dGjRwgODkZKSgoePHiACxcuQF1dHc7OzgCAJ0+eYNiwYViwYAFsbW0REhKC9PR0xMbGIiQkBIqKirC0tBT7HJeVlcHV1RXh4eFcWkZGBgIDAxEbG8s7trS0FLW1tby0kpISlJeXo6ioSKTuZs2a4fLly/Dy8sKjR48wceJEuLm5Yc6cOdDW1karVq14xx85cgTh4eHo0aOH2LY2ePnyJbp06YI7d+7AysoKly5dgpGREZc/ceJEuLi4YPjw4SJljYyMcPv2bairq7/yHISQt9fkwcvNzQ3p6enQ0tLCs2fP3quuzMxM5Ofnw8DAAAoKCigrK0NERATGjBmD+Ph46OrqQl5eHgoKCsjNzcXNmzcxePDgdzpXZWUlbt68iRMnTqBZs2Y4evQoMjIyUFhYCB0dHfj7++PGjRu4evUqKioqkJCQgH79+mHLli1wc3PD4MGD4ebmhp9++gmVlZXw9/fH7t27sWnTJgwbNgyJiYm8DzHGGNavX49NmzZh1KhRePr0KQCgQ4cOWLZsGdauXYsjR45wPYMXL17AwcEBFhYWqKmpERnec3FxQXp6Ohdkrl69itLSUgwYMABAfa/l+++/R8uWLQEAISEhuHHjBuzs7GBiYoKsrCy0atUKrVq1QlZWFtTV1TFx4kT8888/CA8Ph7OzM2JjYzFx4kT89NNPGDNmDNatW8drA2MMp0+fxpEjR+Dr64uKigpkZ2dDR0cHAODj44OhQ4fygtuECROwY8cObNy4EXPmzOHSJ0+ezAVXALh79y6MjY2hoKAgNuBER0ejV69euHXrFhwdHTF27FhYW1sDAGbOnCnyZeDy5cvc/7/88kuJw6UFBQVwcHCAvLw8SkpKMHfuXISGhuLUqVPo1asX9/5LSUlBZWUlOnfujMjISAwZMgTy8vKQlZXFhQsXYGpqCkNDQ7HnIIS8vSYPXqNHj8aoUaMwd+7c964rNzcXS5YsQUZGBoqLi2Fqaoo+ffrA0dERaWlp8PLyQkFBAQQCAY4cOYJx48a9c/ACADk5OZw8eRIyMjLQ0dFBVVUV/vrrL3Tp0oV3XFZWFtasWYN+/foBAAQCAeTl+U9lRUUF7t+/j3PnzqFjx44i5/L398fff/+NGzduQEdHBz4+PujYsSNmzJiBGTNmYNGiRRg3bhwiIiIA/F+vy8HBQWLPZseOHdixYwf27t0LNzc3eHl5oaamBrNmzcKmTZugq6sLfX195OXlAQAcHR3x4sUL/P333xKfk507d3I9pZcvX+LEiRMwMTGBj48PXr58idOnTyMvLw9RUVG4cOECVFVVkZKSgj///BOxsbFc4Nq6dSuSkpJ4QaPBgQMH0LNnT3Tp0oULMkePHuUdo6GhgfPnz6Nt27YS25qeno6EhATk5uYiIiICBQUFEo8VlpiYKPFa59dff41Vq1ZxvVxZ2frLxFFRUfDx8UFJSQkiIyNhaGgIX19fGBgY4ODBg5g5cyaeP38OMzMzWFhY4JdffqHgRUgT+iDBq6nY29vj4sWLGDZsGG7evImff/4ZkyZNAgBMnz4dzs7OsLKyQk1NDSIiImBiYvLe55w7dy66devGffj4+vpiz549AABVVVUkJydj0KBB8Pb25spUV1dDQUGBV4+Ojg42b94MoL5HsnDhQhgZGcHHxwepqak4cOAAbt26BU1NTQD1w2fCgffnn39Gt27dEBcXBzs7O+jo6MDBwUFiu2NiYqCiogJDQ0Pk5uYiOTkZBw4cQNeuXSErK4s//vgDtbW1aNOmDQDAwsICzZo1Q3BwMGbMmIGxY8fy6hMIBFBXV4eKigr69+8PABgxYgQAYMqUKVBQUICHhwcqKyvh4uICoL53KCsri5SUFGRnZ3PXynbv3o158+bBy8sLe/fuFdt+e3t7uLq6IjQ0FH379hXJLy8vx6NHj1BVVcVLl5eXR4cOHQAAxcXFyMzMRGZmJmJiYqCrqwug/r2ipqbGK3fv3j3efkPPV5iSkhIMDAyQm5sLZWVlXl5AQAA3rNyiRQvExcVxx4SGhmLt2rUICAiAo6Mj9/4hhDSdT37CRkBAAGRkZJCQkAA7OzvY2dmhXbt2AAAPDw94eXnB3NwcLi4uSExMRF1dHWbNmvXG9WtpaXGTC+rq6lBcXIzAwECEhYUh3ovRPQAAIABJREFUOzsbixcvRkVFBU6fPg0A2Lt3LxhjGDNmDC5dugQvLy88fvwYV65cweLFi/Hs2TMwxnDixAlER0dDTk4Onp6eYIxh2bJlAIBDhw7B09OTC1wAkJycjC+//JLbl5GRwciRI/HXX3/Bzs7utY/DysoKhw8fxo4dO6CtrY1BgwahW7dumD9/PjZv3oz09HTIysoiICAAQP11LgAIDg5GTU0NKisrefUJBAIAgL6+Pm/CyvLly5GQkIBTp04hJiaGV8bT0xMCgQBZWVlIS0uDs7MzcnJysHbtWpw+fRpxcXF49uwZNm7cCHd3d+76X3V1NY4cOYJz587Bx8cH165dg5KSElfv06dPISMjg0WLFvHOV1VVhaysLK6HZW1tDUVFRaxatQrZ2dmYPn06ZsyYIfE5k5OTAwDcv38fPj4+AIBr167B2NgYWlpasLCwQNu2bZGVlSVStqSkBG5ubggNDcWxY8cwb948bpLPtWvXsGPHDly/fh0jR45EaGioyJcDQsj7+eSDl5OTE1xcXKCnp4eTJ0/yLpb/73//Q7du3SArKwtdXV0oKCigpqYGnTt3fuP6G2bejRkzBnl5eRg2bBiqqqqgr68PZWVlVFdX4+TJk9yH6cuXL3HkyBGMGDEC9vb2uHr1KgYNGoSlS5eiV69e+Pnnn1FVVYXZs2dj69at+P333+Hr64vZs2dDRkYGAHDnzh1MmzaNa0NOTg4EAoHIpAJVVVUUFxe/0eNQU1PD/PnzkZGRgaKiIuzZswcbNmzAw4cPUVFRwR2no6PDu2ZkaWmJQ4cO4dChQ8jJyUFJSQksLCwA1M+WbPiABwA/Pz8EBQWhT58+UFBQQFJSEq5cuQJHR0ecPHkSK1euRHV1Na5du4bLly9j9erV0NbWRmpqKuTl5eHo6IjKykqsXr0a69at457T4uJirFmzBgMGDMCNGzdEhmDT0tJgaWmJuLg4Xvrdu3e54bwGx48fh7y8PLp374758+fjypUrXN7t27dhZGTEXXscOnQoli9fDnNzc5w/fx4A0KdPH/j5+XG94F27duHcuXMiz7eGhgYOHToEGxsbdO/eHbdv3+byzM3NER4eDh0dHYSEhHAzTgkhTeeTD14Nw1wARK71WFlZcf+3sbEBACgoKGDmzJlvfZ7g4GA4OTnhl19+wYkTJ2BpaYlnz56hQ4cOOHz4MC5evAh5eXnMnTsXXl5eUFVVBQCoq6sjLy8P7dq1g7q6OhQVFVFXV4dmzZpBSUkJ169f54avioqK0Lx5cygqKqKmpoY797lz58TOLrx//z66du36xo/B1NQUx48fR3JyMoKCgrjhtAZr1qzBw4cPuf3Dhw+jZcuWGDVqFADg0qVLePToEbcPAIGBgZg4cSI0NTXRu3dvmJub49SpUzA2NoadnR0EAgGcnZ1x9epVuLi44PHjx/D394ehoSG0tbUBgBeMrl27hg4dOvB6VrW1tVBUVBQ5tkFERIRIkALqe17CgaG0tBQHDhyAra0tvL298b///Q9XrlzhArCVlRU2bdr0Rj3ZBra2tli6dKnYvIb3nKKiIq/XrKqqyn2BEn7/EkKazicfvP4thYWFYu/5GTx4MEJCQuDm5obRo0fj5MmTSExM5PLLy8vx5MkTkQ8pTU1N7kOPMYYFCxYgLy8P+/btg4WFBRISErgp98HBwbyZdkB9b+T48eOYN2/eG7X/1q1biI+Ph6GhIZKTk7Fr1y6Re5ISEhK42YcA8Msvv8De3p6bSFBVVYWamhqUlpZyx6xZswaDBw+GpqYmRowYgZCQEC4vNTWVG8JljMHX1xezZs2ChoYGd22yscDAQEyYMIGXVlJSInJNqkFRURGCg4NFptIDQF5eHu/Wg61bt2LQoEHIyMiAiooK4uPjMX/+fGRnZwOo/zLw448/QktLCwDg6+v72qnyXbp0gYyMDK5cuQJbW1ssXLgQfn5+dL8XIR/Zvx68evTogZSUFN4H5Kfg/v37Er8lBwUFwcrKCi4uLjh79iz34QfU39PWrVs3kQkbDfLz8zFt2jQIBAKEhoYCqL9W161bN7i4uCApKQnPnz+Hk5MTV6a4uBjjxo3D8OHD33gSSmVlJaytrTFp0iRERkZi0KBBIjcXv3jxQqScu7s714PdtGkTbty4AT8/Py5/x44d3HCnMMYYwsPDsWfPHpSVlSEuLg6WlpZITExEXl4eTp48CS8vL16Z6OhoREVF4ddff+Wl5+TkcFP4G5/Dy8sLI0eOhLm5uUh+amoqd7MzAHTr1g0TJkzA5MmTAdT3wn18fLhJHs7Ozpg+fTq6desGABJn/wkEAty4cQMXL15Enz594O7ujp07d8La2hrbtm2T2BMjhPx7qOf1/0VGRqJbt27o2rUrNDQ0cOPGDQD1q1esXLkSurq6WL16NTw8PODr64sZM2ZARkYGK1euFOk1AfXT/AMDA7Fr1y7Mnj0bvr6+XBAwMDDAtm3bMGTIEOjo6ODo0aPc0NbChQuxa9cujBkzhpsA8CZsbGx4vYhnz55xQ3EN3mbpp6CgICgoKOD58+die0Xbtm2DhoYGOnfuDEtLS+zbtw9qamqYM2cOLl++jAULFmDZsmXcB/2pU6fg4eGBkJAQaGtro6qqCkVFRVBRUUFYWBi6d+/Oq7+yshKenp548OABLl26BKD+9oPIyEg0a9YMAoEA27Zt492SIdyrBOqDYuPHLBAIuJufnz59Cg0NDaSlpeHixYu4c+cOUlNTMWHCBFhZWWHAgAHQ09PD3LlzYWFhAX9/f7Rr144bMiaEfDwfLHht2rRJbLq4+3w+BZmZmVi8eDFat26N/v37Izc3F9988w3+/vtv+Pn5YdiwYQDql1NatWoVtm7diqFDh8LAwIBb0QIAlJWVISMjg+DgYFRVVeHatWtiexWjR48We1vBhAkTMHv2bOjr60tsa0NgfZWGG6yF5efn85ZhGjlyJHddqrG8vDyUl5dj3bp1YtufmZmJ4OBgqKur49atW5CRkcHo0aMRFRWF9u3bY//+/ZgxYwaqq6tRUFCA+fPnIywsDL179wZQf0+Wq6srysvLoaOjIzKFPikpCWVlZbhw4QJ3Xau6uhphYWEoKipCdXU1nJycMGXKFInPwcGDB3mTPIyNjXH48GEcPnwYQP2XiJ07dyI7OxuFhYWwt7eHt7c3TE1Nufu5GgQHB8Pb2xtr166VeD5CyL9Hhr3nSrSfy6rytbW1vMkCAoGAN9PuU1ZWVgZlZWWuvQ3XkBp/ADdMh298z1KDFy9eoLKy8pWBs6SkBCUlJTAwMHirNtbV1Ym050PJycmBtrY2zfIj5BP2vrFDqocNb926hT///BNA/Yyv91nVo/EsN2kJXABEhvU0NDTEHicpaDV4k0kIGhoaEut/lX8rcAHg3U5BCPk8fdI/iZKRkYFvv/1WYn5iYiIuXrwIY2NjmpJMCCH/IZ90z8vExAQ5OTlISUmReONxx44d4erq+i+3jBBCyMf0Sfe8gPoVwX/77beP3QxCCCGfkE8+eI0dOxbnz58Xe48SIYSQ/6ZPPngpKipiwoQJtDI3IYQQzicfvADAy8sLO3fuRF1d3cduCiGEkE+AVAQvAwMDfPXVVzhz5szHbgohhJBPgFQEL4AmbhBCCPk/UhO87Ozs8Pz5c97vJhFCCPlvkprgBQDff/89tmzZ8rGbQQgh5COTquA1fvx46OnpfexmEEII+cikKngpKytjyZIl3H7z5s1x6dIlWFpaolevXh+xZYQQQv5Nn/TyUK/j7OwMZ2fnf+18z58/R2hoKNTU1DBx4sR3riciIgKZmZkYMWIEjI2NxR6TlpaGqKgoWFpawsHB4Z3PFRgYCHl5ebi4uEBdXf2d62kqt2/fRrNmzST+EOT7ysrKgkAg4P1IJSHk8/NJ97xetzAvADx+/BjDhg1D9+7duRXmPxQnJyc8fPhQ7O9bAcDNmzfx/fffv7YebW1t1NXVwcHBgfthRGFFRUXo378/FBQUJK70vm/fPuzcufO15zIwMMD169cxderU1x7bFGJjY9GzZ0/Y2dkhJyeHl5eYmAgvLy80b978g51fQ0MDEydORHp6+gc7ByHk4/uke15vsjDv1q1boaWlhR07dnzwnzH5559/EBMTI/E8L168wJUrV15bj7W1NaytrREYGIgnT56gdevWvPz09HR07NgR3t7eEuu4f/8+SktLX3uuESNGwNbWlvcryx+Sn58f3N3d0b9/f17graqqgru7O86cOSP2l5mbipaWFrZs2QI3NzckJiZyv15NCPm8fNI9L+D193dlZ2fD1tYWRkZGYn8gsa6uTmzvpuGHGcWprq4Wm15XVyc2cAkEgnda/UNRUVHsuWpqaqCoqCi2TE1NTZOd50PIzs6Gvb09OnbsyBumDAoKQv/+/dGuXbsP3oZu3bqhffv2CA0N/eDnIoR8HJ988JK0MG9aWhpcXV3x119/ITg4GK6urjh37hwAIDo6GqNGjcKaNWugp6fH+62vqVOnQl9fH506dULbtm2RlJTE5aWnp8Pa2hq6urrQ1tYW6UWJ+xb/66+/onnz5tDR0eGtALJmzRreUF1oaCj69OnDKysrKwtxP2Qt7leHa2trMWHCBGhoaMDExAQPHjzg8oYNG4bAwEAA9b3DTp068YKzpPM0paNHj8LV1RXPnz/HggUL4OrqikePHnH5oaGhcHFx4ZUpKiqCsbExUlNTAQCbN2+Gu7v7K89TUVEBQ0NDZGRkcGndu3dHZGQk77ixY8fi6NGj7/uwCCGfqE8+eElamNfAwABeXl5o37497O3t4eXlhU6dOgGo753ExMQgOTkZjx49wuPHj7lyP/zwAx4/fox79+7h+++/x7Zt27i8KVOmYPDgwXjx4gXu37+PDh06cHn3799Hq1ateG14+vQpFi9ejOjoaDx48ACxsbFc3siRI3Hs2DGuxxMeHg5HR0de+datW+Pu3bsijzkzM1PkxzVPnDiBK1euIDs7G+Hh4QgPD+fylixZgtWrV6OmpgYrV66Er68v71eTNTQ0IBAIUFRUJOFZ5mvVqhWaN2/O2548efLKMlZWVvDy8oKKigpcXFzg5eXFGza8evUqbGxseGWaN28Ob29v/Pzzz6iqqsKvv/6KxYsXv/I8KioqsLOzQ1hYGID61yUjI0Pki0GPHj2QmJj4Ro+XECKF2HtasGDB+1bxWo8fP2YmJiZMIBCI5Lm4uLDt27fz0iIiIpiqqiorKioSW19iYiILDAxk7u7ubNCgQYwxxgoLC5msrCwrLS0VOX7+/PnMyMiInTt3jpceFhbG7OzsuP3g4GDWvXt3br9r164sIiKCCQQCpqOjw9LS0njl79y5w9q0acOcnZ25NEdHR9ahQwf26NEj3rGzZs1i/v7+3P7kyZPZvHnzuH1XV1c2b948ZmlpKfZ5OnToEDM2NmYrV64U+5wIq6ysZBUVFbztTenp6bHbt2/z0kpKSljz5s0lnqt9+/Zszpw5zMfH543Ocfz4cWZra8sYYywgIIB9++23IsdUV1czFRWVN243IeTf9b6x45PveQHvtjCviYkJNDU1RdK/++47/Pjjj5CTk4O+vj53PSwvLw+amppiJxP4+fnB398f27dv56UXFhZCV1eX105hrq6uCAsLQ1JSErS1tWFubs7LP3DgAFxcXHjX9Pbu3Yuvv/4ax44de6tzzZo1Cxs2bMDMmTNFhhwBYPv27diwYcMbzYZ8+PAhsrKyeJu464ZvSklJCVVVVRLzpk2bho0bN2LWrFlvVN/QoUORnp6OJ0+e4M8//8SYMWNEjqmsrISSktI7t5kQ8mmTiuAFvP3CvOKCUG5uLk6ePIkzZ87Aw8ODNyyoo6ODly9fiv2Q/eKLLzB16lRERUXx0rW0tFBQUMDt5+fn8/JdXV0RHh6O06dPi/2APXfuHCZNmsSbet+qVSuMHz8eZ8+efatzBQYGYuLEidi5c6fI9a2Kigrcvn0bo0ePfqNp6tOmTYObmxtvKywsfG05SRQUFKCpqSnSZqB+iHffvn0YN24cd93udZSUlDBy5EgcOnQIV65cwdChQ0WOyc7OhpGR0Tu3mRDyaZOa4NUUC/NWVFRARkYGdXV1qKqqwu7du7k8LS0tWFpactfAGl8jkpeXF5npZ2Njg6tXryIlJQU1NTXYtWsXL79t27Zo06YNtmzZIvZm6qqqKrG9A3E9FTs7Oxw+fBjFxcV48uQJTpw4weXduHEDMTEx2L17NxhjCAkJeaPzSBIbG4urV6/yNuFe37sYMGCASEAG6nuElpaW2Lx5M4KCgpCVlcXLt7S0hJOTk0i5cePGYdWqVXBwcBB78/XZs2cxcODA92ozIeTTJTXBC3j/hXnbtWuHr7/+GiYmJujcubPIBILdu3dj+/btMDMzg5GREeLj419Zn76+PpYtWwYrKysYGRnByspK5BgXFxdoaWnhyy+/FMmrq6sTO4NRRkZGpPfk5OSETp06wcDAAPb29hg+fDiX5+vri7lz50JBQQGLFi3CokWLeMFP0nn+TZ6entixYwcvraioCCtWrMCiRYugo6ODiRMnws/Pj8svLy9HamoqPDw8ROpzdHSErKys2B5tbW0tgoOD/7UbswkhH8HHvuj2NioqKtiyZcveu56nT5+ysrKyV+aLm7hhZGQkMhmBsfoJCcXFxWLrWrhwodjnqKioiOnq6rKSkhKRvHv37rF27dqJbWNBQQGrqqqS2HZx/vrrL2ZjY/NWZT6EcePGsX379r3x8bGxsUxfX5/V1NSI5BUVFTENDQ324sULkbwNGzaw2bNnv1dbCSEf1n9iwkaDxgvzvis9PT2oqqq+Ml/cNbPffvsNkydPFlnXUF1dHRoaGmLrOnLkiEjvYPny5ejfvz+WLl0qdsirXbt2cHd3h52dHQICAnh52traEm9gFmfEiBHw8/PDunXr3rjMhxIUFITjx4/z7tF6lcLCQixatAjy8qILwZw4cQJ2dnYi1/CuXbuGa9eufRKPlxDy4cgw9n53ry5cuBBr1qxpqva8lf3793P3cNna2qJv374fpR2S3LhxA+PGjUNaWtpHH7b73Li6umLw4MGYPHnyx24KIeQdvG/s+KR7Xq9bmFdfXx/GxsbIzMx8q2n0/xZLS0vcvn2bAtcHEBISQoGLkP8wqV6Yt2HFiqKiImRmZv7bzSOEEPKRfNI9L+Dt7+8ihBDy+fvkg5ekhXkJIYT8d33ywUvSwryEEEL+uz754AUAXl5e2Llz5zv9ZhYhhJDPj1QEr3dZmJcQQsjnSyqCF0ATNwghhPwfqQleTbEwLyGEkM+D1AQv4P0X5iWEEPJ5kKrgNX78eOjp6X3sZhBCCPnIPukVNhprvDDvpEmTcOvWLQgEApHFcgkhhHy+pCp4NbZv376P3QRCCCEfgVQNGxJCCCEABS9CCCFSiIIXIYQQqUPBixBCiNSh4EUIIUTqUPAihBAidSh4EUIIkToUvAghhEgdCl6EEEKkDgUvQgghUoeCFyGEEKlDwes9McY+dhMIIeQ/R6oX5n0XwcHBqK2tBQAYGhoiJSUF7u7u0NXVRX5+Pnbv3o1FixYBAEpKSqChoQEAyMrKwqZNm7Bp0yZefeHh4Vi/fj3++usvXnp2djZu3boltg2qqqro168fgPrgd/ToUYwZMwaysrLcuebOnYv9+/fj6dOnWLt2LbZv3466ujpERETg8uXLWLVqldi64+Pjoaenh/bt2wMAkpKSoKGhATMzs9c+N/v370dYWBiOHz8u8ZjS0lKkp6fj8uXLePbsGQYMGIDCwkKxx9rZ2aF58+avPKeZmRnWr1+PiIgIrFy5Ei1atHhtOwkhpMl7XtHR0Rg+fDi++uor+Pr6QiAQvHed9+7dg5WVldi83bt3w9fXVyT99u3bGDJkCMaOHctL9/HxQWlpKeLj4xEUFISDBw/izJkzOH/+PNLT07F3716Eh4fD3t4eoaGhAIDi4mIsW7YMXbp0wY0bN5CTkwN7e3uYmZlhxowZSE1NhZmZGUxNTbF+/XoA9cErMjISrq6uOHbsGCIjIzFjxgzs3LkTMTExAIAnT55gxIgROHjwIKqrq7m0YcOGwcnJCba2tqioqEB6ejpiY2Mxc+ZMREVFcYGpsbKyMri6uqKkpIRLy8jIgKenp8ixpaWlKCoq4m0lJSUoLy8XSS8qKkJdXR3i4+PRq1cvDBgwABkZGRg6dCgWLFiAoKAgREZG8rapU6fizp07r3tp8fLlS3Tp0gVt27aFlZUVcnJyePkTJ07E6dOnxZY1MjJCaWnpa89BCPkMsfe0YMEC3n6vXr3YqVOn2JUrV5ihoSELDQ1957rv3r3L/v77b/bgwQPWo0cPVlpaykJDQ1ldXR2Li4tjGRkZLDg4mPn5+bEnT56wiIgIxhhjW7duZW3atGGTJ09mtra2vDo1NTUZY4xNnjyZ/fHHH+zLL79kzs7OzMPDg/3xxx9MRUWFzZs3j928eZM9fvyY5efnM1NTU9a1a1dWXl7OunTpwlJTU5mhoSErKCjg1b1ixQq2cOFCXpqhoSHLyclhjDHm4ODAIiIi2MOHD5mvry8zNDRkW7ZsYXV1dYwxxmJiYljr1q3Znj17WElJCevUqRNLTk5mDg4O7OLFi8zT05O1bduW6enpsRYtWjBlZWWWn5/PnWvKlClsxowZIs+jnZ0d+/XXX3lpY8aMYaamptwmKyvL2rVrx0sT3h49esSV7d+/P/vrr78YY4z17t2bRUVFiZyze/fuLCEhgTHGWNeuXVn79u3FbnJycqxNmzasffv2TEdHhzk7OzPGGAsPD2fPnj1jkydPZpGRkSw5OZklJSWxiooKFhYWxiorK5mxsTErKytj0dHRvPYRQj59jWPH22ryYcOYmBjIy9dX279/f6Slpb1zXbm5uViyZAkyMjJQXFwMU1NT9OnTB46OjkhLS4OXlxcKCgogEAhw5MgRjBs3DoMHD0b79u2RnJyM6Oho3L59W6TeZ8+eIS4uDjt27MDq1auxYsUKmJmZITk5Ga1bt8b69etx8eJFrFixAqGhobC1tYW+vj42btyIwYMHo02bNgAAJycnKCgocPU+fPgQLi4uvHMJBALu+Whw7949fPHFF0hOTuYNk718+RInTpyAiYkJfHx88PLlS5w+fRp5eXmIiorChQsXoKqqipSUFPz555+IjY2Fjo4OAGDr1q1ISkrC5cuXRR7vgQMH0LNnT3Tp0gWOjo4AgKNHj/KO0dDQwPnz59G2bVuJr0d6ejoSEhKQm5uLiIgIFBQUSDxWWGJiosRrg19//TVWrVoFe3t7AOCGTqOiouDj44OSkhJERkbC0NAQvr6+MDAwwMGDBzFz5kw8f/4cZmZmsLCwwC+//AJDQ8M3ag8hRPo1efAS/qDOzc2FjY3NO9dlb2+PixcvYtiwYbh58yZ+/vlnTJo0CQAwffp0ODs7w8rKCjU1NYiIiICJiQkAYNCgQa+sd+vWrZg4cSIeP36M0tJSLFu2DGlpaRgxYgQKCwuxb98+XLp0ifsg37BhA6ytrdGsWTO4ubkhMDAQQP01oi+++IKrd/369dz1tAbV1dW8AAcAffv2Rd++fQHUD9998803WLt2LUaMGAEAmDJlChQUFODh4YHKykouIL548QKysrJISUlBdnY2WrduDaB+6HTevHnw8vLC3r17JT6Xrq6uCA0N5c4trLy8HI8ePUJVVRUvXV5eHh06dABQP3yamZmJzMxMxMTEQFdXl3st1NTUeOXu3bvH23/69KnIOZWUlGBgYIDc3FwoKyvz8gICAjB+/Hg4OzujRYsWiIuL444JDQ3F2rVrERAQAEdHR+zZs0fsYyaEfL4+2ISNkpISJCQkYOPGje9VT0BAAGRkZJCQkAA7OzvY2dmhXbt2AAAPDw94eXnB3NwcLi4uSExMFAkU4owdOxZubm6oqKjAmDFjYGNjA4FAgPj4eCxduhQPHz6EmZkZxo0bBwDQ1NSEtrY2vLy8oKOjgx07dgAAFi9eDCUlJa7eW7duYeDAgQCAtWvXYs+ePSgqKkLPnj0hKyuL7OxsTJ8+HSYmJoiOjsa1a9cwadIkuLi44KuvvgIALF++HAkJCTh16hR3bayBp6cnBAIBsrKykJaWBmdnZ+Tk5GDt2rU4ffo04uLi8OzZM2zcuBHu7u5cYK2ursaRI0dw7tw5+Pj44Nq1a7x2P336FDIyMtxElQZVVVXIysrieljW1tZQVFTEqlWruMcyY8YMic+znJwcAOD+/fvw8fEBAFy7dg3GxsbQ0tKChYUF2rZti6ysLJGyJSUlcHNzQ2hoKI4dO4Z58+Zh69atXB07duzA9evXMXLkSISGhopc2ySEfOY+1Ljlxo0bmb29/ftWz7KystjTp08ZY4xdv36dVVdXc3lJSUlMIBAwxhi7cuWKSNmwsDCJ17w8PT3ZsWPHWO/evVnv3r2ZoaEhMzAw4PZ79+7NkpKS2M2bN1n79u2ZmZkZU1dXZ2PGjGFt2rRht27dYsnJySw+Pp7JyMiw6OholpyczAIDA1ldXR2rqqpiRUVFTEFBgRUXF7OSkhJmZ2fHwsLC2LVr15ibmxvr0KEDi4yM5Nq2cOFCpqWlxcaMGcMePHjAPD092ZdffsnmzZvHOnTowEJCQti+ffvYggULWKdOnbhrbjU1NVwdFRUVTElJiVVWVnJpL1++ZLKysiLHNoiOjmbdu3cXSc/IyGB6enq8tCVLljB5eXk2atQo5u3tzbp3785tqqqqzNTUlNv/8ccfRepsuO7XYOfOndx1rsYaXtOqqip248YNLr2srIwlJyczxurfH3l5eWLLE0I+XZ/cNS+g/pv8ypUrERkZ+d51NVxfAgBLS0tenvAMxLcdnjQ1NcX169eRkZEhdkq7k5MTioqK4OjoiI0bN0JTUxPe3t7w8PCAg4MDXF1dUVVVBRsbGzAQJtcIAAAgAElEQVTGcOHCBejo6CAuLg7Tp0+HoqIi8vPzoaury023l5OTg7KyMgQCAezs7BAUFAQlJSWUl5dDXl4evXv3hrm5OU6dOgVjY2PY2dlBIBDA2dkZV69ehYuLCx4/fgx/f38YGhpCW1sbAH+o9tq1a+jQoQOvZ1VbWwtFRUWRYxtERERw15yEVVVVQUVFhdsvLS3FgQMHYGtrC29vb/zvf//DlStXuB6WlZUVNm3aBDs7uzd+HWxtbbF06VKxeQ2vqaKiIr788ksuXVVVFZ07dwbAf38QQv47mjx4McYwbdo0eHt7S5ze/rGdPXsWoaGhcHd3R1lZGVavXi1yzKNHj7j/r1u3jvuAvXz5Mrp3747U1FR4eXnB1NQU4eHhOHXqFJSVlXHp0iXIyMgAAFJTU7nrcMKsra1hbW0NoD4gDB8+HJMmTcLUqVMREhLCHZeamsoNkTLG4Ovri1mzZkFDQ4O79tdYYGAgJkyYwEsrKSkRuSbVoKioCMHBwYiNjRXJy8vL413T27p1KwYNGoSMjAyoqKggPj4e8+fPR3Z2NoD64cEff/wRWlpaAABfX1/06NFD7HkbdOnSBTIyMrhy5QpsbW2xcOFC+Pn50f1ehJBXavL7vH766SdUV1dL/Dbdo0cPqKurN/Vp30pJSQlmz54NJycnKCsrw9nZWWRr+AAGgPz8fOjp6QEA2rZti8zMTBw6dAipqalwd3eHvLw8NmzYIHJPW3h4OHr16iWxHdevX4eNjQ0cHBwwdepUXh5jDOHh4ejXrx/KysoQFxeHmpoaJCYmIi8vDydPnhSpLzo6GlFRUZg+fTovPScnBy1bthQ5njEGLy8vjBw5Eubm5iL5qampvHvKunXrhv/973/cvoKCAnx8fLBy5UqsXLkSBgYGmD59OrffqVMnsY9bIBDgxo0b2LhxI27cuAF3d3fs3LkTdXV12LZtG6/XSAgh4jR5zysgIACVlZXQ1NQEAEybNk1kVYqPzdnZGUD98GZdXZ3YmXA1NTXcMcIf/KNHj8a6desQFBSEixcvgjEGeXl5ODo6wsHBAc7Ozjh27BiePHmC/fv34/r16yJ137p1Cxs3bkRsbCx+++03DB06VOSYbdu2QUNDA507d4alpSX27dsHNTU1zJkzB5cvX8aCBQuwbNky7kvCqVOn4OHhgZCQEGhra6OqqgpFRUVQUVFBWFgYunfvzqu/srISnp6eePDgAS5dugQAqKioQGRkJJo1awaBQIBt27Zh7ty5XJkBAwbw6sjJyUFZWRkvTSAQcDMunz59Cg0NDaSlpeHixYu4c+cOUlNTMWHCBFhZWWHAgAHQ09PD3LlzYWFhAX9/f7Rr1w6qqqriXzhCCPn/mjx4vXjx4pX54u5D+lBGjRqFUaNGvfKYmpoapKSkiKQ3fCirqKhg7dq1XHqzZs2gpaWFuLg4rFy5EqGhoejduzeA+qny/v7+qKioQEJCAr777jtez0VdXR3y8vJYu3YtevXqhe3bt4tMEW+QmZmJ4OBgqKur49atW5CRkcHo0aO5FTb279+PGTNmoLq6GgUFBZg/fz7CwsK4tqSnp8PV1RXl5eXQ0dERmUKflJSEsrIyXLhwgbuuVV1djbCwMBQVFaG6uhpOTk6YMmWKxOfu4MGDiIuL4/aNjY1x+PBhHD58GABgYGCAnTt3Ijs7G4WFhbC3t4e3tzdMTU25+7kaBAcHw9vbm/dcE0KIJDKMvd/KsgsXLsSaNWuaqj0f3MuXL7leIWMMJSUlaNbs/7F33/E53f//xx/ZiQSRaccMqSBBq2qvUmqntVeoUVoUtYq2iGqtqtpRDR9qBzWS2lqrsWMLGYKIEdnjSs7vj/xyvi7XFUkQcunrfrvlVtf7vM/7vM91pdcz55z3eZ8iOvXi4+OxtLRUBzikpqYSGRn53Jt4X4W4uDji4uIoWbJkntbLyMjQCYT8EhERgYODg9ZgDiGEyIuXzQ6Dnpj3/Pnz7Nq1C8gckfb0Ka7sZAUXgJGRkd7gAnSuy5mbm+d7cEHmTBdZoxPz4nUFF2TOKSiEEG9SgX4kyrVr1/j000+zXX7y5EkOHDhAuXLlZMi0EEL8hxToIy9XV1ciIiIIDg5W7+t5VuXKlenWrdtr7pkQQog3qUAfeQEMHz6cX3755U13QwghRAFS4MPrk08+Ye/evTmOYhRCCPHfUeDDy9zcnJ49e8rM4UIIIVQFPrwAhgwZos7AIIQQQhhEeJUsWRJPT0927tz5prsihBCiADCI8AIZuCGEEOL/GEx4NWjQgIcPH3L58uU33RUhhBBvmMGEF8CwYcNYuHDhm+6GEEKIN8ygwqtHjx7qo0mEEEL8dxlUeFlaWjJlyhT1ta2tLQcPHsTDw+O5z80SQgjxdjGo8HqWl5cXwcHBnD17lqNHj+b79h4+fMiSJUtYvXr1S7Wze/dufvnlF0JDQ7Otc+nSJX7++WcOHTr0UttaunQpvr6+xMfHv1Q7r8rly5eJjIzMsZ6iKBw6dMggbo+4d++e3sfq6BMaGkpISEg+90iIt1+BDq+cJuYFiIyMpG3bttSuXVudYT6/dOjQgbCwML1PJQY4d+4cw4YNy7EdBwcHMjIyaNy4sfrgxqfFxMTQvHlzzMzMKFasmN42/Pz8WLZsWY7bKlmyJGfOnNF5UvObcPLkSYYMGYKtrW2OdY2MjLhw4QJffvnla+jZi3v48CGdOnXCxMQkV/ULFy5M7969uXr1aj73TIi3nPKSvv7665dt4rnef/995cKFC9kunzBhgtK7d28lPDxciYyMzNe+WFlZKRqNJtvlBw4cUGrXrp3r9tzc3JSwsDCd8uPHjysNGzZ87rpTp05VRo8enavtREVFKeXLl891v/JDcnKyUrVqVSUkJCRP67Vv317x9/fPp169vO7duytr1qzJ0zqnTp1S6tSpo2RkZORTr4Qo+F42Owr0kRfkfH9XeHg4devWpUyZMnof4JiRkaH36CY5OTnbNlNTU/WWZ2Rk6P0LOz09/YVOb5mbm+vdVlpaGubm5nrXSUtLe2XbycmqVavyfLpRURS97/eKFSto3rw5FSpUyFN7P/zwAxMnTszTOq9aRkYG6enpOuXBwcFcvHiRHj165Km9WrVqUbFiRTZu3PiquijEf06BD6/sJua9dOkS3bp148iRI6xatYpu3boRGBgIwL59++jYsSOzZs3C2dlZ61lf3t7elChRgmrVqlG+fHn+/fdfddnVq1d59913cXJywsHBgRMnTmht08jISKd/c+fOxdbWFkdHR60ZQGbNmqV1qm7jxo00adJEa11jY2MUPQ+y1vdUZI1GQ8+ePSlcuDCurq7cunVLXda2bVuWLl0KwOnTp6lWrZpWOGe3nZwMGTKEBw8e5Kput27d+P777ylbtixFihRhwoQJWss3btxI165dtcpiYmIoV64cFy9eBODnn3+mb9++WnXc3NwwNjbm0qVLACQlJVGqVCmuXbum1qlduzZ79uzJ8/7lxsqVKylWrBiOjo7MnDmTWrVqqcs2bdqEl5eXzu9FTp8HZP5eb9q0KV/6LMR/wps+9MuNyZMnK7Nnz9Yqe/z4sXLgwAGladOmyqhRo5QDBw4ot2/fVhRFUXbv3q3Y2toqPXv2VJKTk7XWO3PmjJKenq4oiqL89NNPSr9+/dRl9erVU7755hslIyNDefLkifLgwQN1WUhIiFKpUiWttu7evatYWloqJ06cUJ48eaK899576mnDS5cuKUWKFFFSUlIURVGUXr16KdOmTdNav0OHDsrOnTt19tfX11cZOHCgVtnGjRuVihUrKlFRUcrly5cVW1tb9bTh8ePHlXLlyimpqalKp06dlJUrV2qtm5GRoTg7OyuPHz/W9/Zmy8LCQrl161au6rZt21ZxdXVVoqKilCtXriiFCxfWOt1rbW2t81koiqLMmjVL6dGjh5KcnKyULVtWuXr1qk6dgQMHKr/99pv6+tNPP1V++OEHRVEyPxcbGxslKSnpuf3r2rWrUrRoUa2f9evXP3eduLg4xcbGRtm7d6+SkJCgNG3aVKlYsaK6vE2bNkpAQIDOejl9HoqiKLdv31ZcXFyeu30h3mYvmx0GEV6RkZGKq6urGjpP69q1q7J48WKtst27dyuFChVSYmJi9LZ38uRJZenSpUrfvn2VVq1aKYqiKI8ePVKMjY2V+Ph4nfpjx45VypQpowQGBmqVb926VWnQoIH6etWqVVrXvGrUqKHs3r1bSU9PVxwdHZVLly5prX/lyhXFxcVF8fLyUstatGihVKpUSQ3iLCNGjFC++eYb9XW/fv20rnl169ZNGT16tOLh4aH3fVq7dq1Srlw5Zfr06Xrfk6dNnDhRGT16tGJiYqJ89tlnyujRo7N9L7O0bdtW8fHxUV936dJFWbp0qaIomSFga2urd73k5GSlYsWKyqhRo5QvvvhCb51JkyapYaUoirJlyxalbt26iqIoyoIFC5RPP/00x31KTU1VkpKStH70vU9PO3LkiOLu7q6+9vf31wqv2rVrK2fPntW7bk6fR2pqqmJlZZVjv4V4W71sdhToJylneXpi3nbt2uVqHVdXV4oWLapTPnToUG7dusUnn3xCiRIluH37NgBRUVEULVoUa2trnXXGjx9PpUqVWLx4MS1btlTLHz16hJOTk1Y/n9atWze2bt1KsWLFcHBwwM3NTWv5mjVr6Nq1K6NGjVLLfvvtN6ZOncrmzZu1Rto9evSIihUram0rJSVFfT1ixAjq1avHihUrdE45AixevJg5c+bQrFkz3TfrGS4uLqSmpmJkZETp0qWxs7PD1DTnX5USJUqo/3ZycuLhw4cAWFhYaPX1aRYWFgwcOJAJEyZw48YNvXWSkpJwdHRUX7dp0wZvb2/u3LnDrl276N+/f459i4qK0rl+V7JkSYoUKZLtOjl9vpaWliQlJeldN6fPIzk5GQsLixz7LYTQr8Bf88qS14l59YXQ3bt32bZtGzt37mTAgAFUqlRJXebo6MiTJ0/0fsna2dnh7e3NX3/9pVVub29PdHS0+vr+/ftay7t168b27dv5888/6dKli067gYGB9OnTR2vofenSpenRowcBAQF52tbSpUvp3bs3y5Yt07m+lZSUxOXLl+ncuXOuhqkPGjSI4cOHY2JiQp8+fRg+fLje9/NZT/cpOjoae3t7AMzMzChatKhOnyFzAIqfnx/du3dXrxM9Kzw8nDJlyqivLSwsaN++PWvXruXEiRO0adMmx77NmTOHXr16af38888/z10np/e8TJkyhIeH6133eZ+Hvn0SQuSNwYTXq5iYNykpCSMjIzIyMkhJScHX11ddZm9vj4eHB4sWLQIyRxDGxMSoy01NTXVG+r333nsEBQURHBxMWloay5cv11pevnx5XFxcWLhwIV5eXjr9SUlJ0fvXt74jlQYNGrB+/XpiY2O5c+cO/v7+6rKzZ89y6NAhfH19URSFP/74I1fbedXWrFlDQkICERERBAYGas160rJlS51AhswjQg8PD37++WdWrFihc+O2RqPh8OHDNG3aVKu8e/fuzJgxg8aNG2NjY5Nj3+bNm0dQUJDWz0cfffTcdWrUqEFYWBjHjh0jIyODJUuWaC3Pbp9y+jwAAgIC+PDDD3PstxBCP4MJL3j5iXkrVKhAo0aNcHV1xd3dnffee09rua+vL4sXL6Zq1aqUKVMmx1k7SpQowXfffUedOnUoU6YMderU0anTtWtX7O3tqVmzps6yjIwMvSMYjYyMdP5a79ChA9WqVaNkyZI0bNiQjz/+WF02ZswYvvrqK8zMzJgwYQITJkzQCr/stpOT3bt3Z3tDtj6enp5UqlQJV1dXBg0ahLu7u7ps0KBBOl/+MTExTJs2jQkTJuDo6Ejv3r0ZP368Vp0NGzbQvHlznZu1W7RogbGxsd4j2lelcOHCzJ07l2bNmuHs7KxzpNSlSxcOHDigdXQGOX8eGo2GVatWFYgbx4UwWG/6olteJCUlKd99991Lt3Pv3j0lISHhucv1DdwoU6aMcvnyZZ3yuLg4JTY2Vm9b48aN0/sexcTEKE5OTkpcXJzOspCQEKVChQp6+xgdHa2OYMytI0eOKO+9916e1smrtm3bKqtXr1bi4+OzHdXYvXt3xc/PL9dtPn78WKlevbreG7ljYmKUwoUL53kE5YtISEhQHj9+rJw5c0ZrwIaiKMrSpUsVb2/vPLU3Z84cZeTIka+yi0IYnLf+JuWnPTsx74tydnamUKFCz12u7xrPL7/8Qr9+/ejdu7dWuY2NDYULF9bb1oYNG3SODr7//nuaN2/O1KlT9Z7yqlChAn379qVBgwYsWLBAa5mDg0O2NzDr065dO8aPH89PP/2U63VehrW1dbbX1VasWMGWLVu07tHKjqIojB07lgULFlC2bFmd5f7+/jRo0CBX1/BeVqFChbLdzqBBg7Czs8v1PVunTp3i1KlTr+3zEOJtZaQoL3D36lPGjRvHrFmzXlV/8mT16tXqJK9169bVuS7ypp09e5bu3btz6dKlFzptZ0i6detG586dc5yL8lVur3Xr1vTr1++1bA/gwoUL9O3bl9OnT7+2bQrxtnrZ7CjQQ+WvXbvGN998w4YNG/QuL1GiBGZmZuzdu5cHDx4UuPDy8PD4zzz5Wd+ghLdpewDVq1eX4BKigCjQ4eXq6kpERATBwcFaF/+ztGjRAsi88J/dPUJCCCHePgX+mlde7+8SQgjx9ivw4ZXdxLxCCCH+uwp8eJmbm9OzZ09Wrlz5prsihBCigCjw4QWZj+ZYtmyZQTwSXgghRP4ziPB6emJeIYQQwiDCC2TghhBCiP9jMOH1KibmFUII8XYwmPCCl5+YVwghxNvBoMKrR48eODs7v+luCCGEeMMK9Awbz3p2Yt4+ffpw/vx50tPTdSbLFUII8fYyqPB6lp+f35vughBCiDfAoE4bCiGEECDhJYQQwgBJeAkhhDA4El5CCCEMjoSXEEIIgyPhJYQQwuBIeAkhhDA4El5CCCEMjoSXEEIIgyPhJYQQwuBIeAkhhDA4El5CCCEMjoSXEEIIgyPhJYQQwuBIeAkhhDA4El5CCCEMjoSXEEIIgyPhJYQQwuBIeAkhhDA4El5CCCEMjoSXEEKI12bw4MGvpB0JLyGEEK/F4MGDWbp06StpS8JLCCFEvnuVwQUSXkIIIfLZqw4ukPASQgiRj54NLrnmJYQQokDTF1xyzUsIIUSBlZ/BBRJeQggh8sGzQfWqr3kZKYqivGwj48aNexV9EUII8R8xa9asl1r/lYSXEEII8TrJaUMhhBAGR8JLCCGEwZHwEkIIYXAkvIQQQhgcCS8hhBAGR8JLCCGEwZHwEkKIAubmzZv8+uuvr6x+UFAQGo2GPXv2EBERwc2bN7l79y7BwcEcOnToVXT5tTN90x0QQoj/uoiICK3X9+7dIy4uTqe8aNGiFClShICAAMLDw9Xy+Ph47ty5w/Lly7Xqd+rUCQcHBxISEggICCA6OpqyZcuya9cuhgwZwpEjRyhVqhSxsbEAGBsbY2Njk097+WpJeAkhxBu2Z88enTJ7e3v27NlDbGws9+7dw9XVldq1a1OrVi2uX79Os2bNKFGiRLZtrl69moSEBGxtbUlPTycqKor79+9z5swZnJyciIqK4tKlS9y7d49Tp04RGhpKtWrVGDBgQK76vGbNGhwcHGjdujUA6enpbNiwgcuXLwNQunRpevbsibW1NVevXmXjxo1oNBosLCzo3r075cqVy/sb9RQJLyGEeMM+++wzFEVhxYoV9O/fH1PT//tq9vf3x83NjTZt2mitY21tzeLFi/W2V7duXbUNIyMj7OzsuHPnDqGhody5c4dOnToRFRVFUlISXbt2xdnZmWnTptG3b98c+3r//n3WrVvHjRs3aNu2rVp+4MABHjx4wNSpUzE2Nmbt2rVs3bqVbt26sXTpUr744gvKly/PuXPnWLlyJd9///2LvFUqCS8hhCgAjIyMMDExISgoiPfffx+AtLQ0jh8/rjN/rLe3N5aWlkycOFGr/MiRI+zfv5+aNWtSr149LC0tMTY2JiUlhejoaGrXrk3lypU5e/YsRYoUoVSpUly9ehVHR0fS09PVwFu6dCmOjo507txZp5+HDx/mvffew8nJSau8QoUKvPPOO5iYmABQvnx5zpw5g6mpKT/88APm5uYAPHnyhEKFCr30+yXhJYQQBcRHH33E4sWLqV27NmZmZuzduxd3d3eKFSumVe/ZL/+UlBRWrFgBwJgxY7C2ttZadvPmTXr37s2hQ4fw8PDggw8+YOPGjTRu3Jh//vmHcuXKUapUKXWd7t27qyH0LC8vLwBCQ0O1yitUqKD+Oz4+nt27d9OpUycAzM3NiY2NZe7cuURHRzNo0KA8vjO6JLyEEKKAKFGiBDVr1mTTpk00aNCAw4cPM2nSJK06cXFxnDx5UqssJSWFq1ev0qFDB44fP66WOzo64uLiQlJSEitXriQuLo4nT55oLVuzZg02NjbUqFFDXa9IkSIvvA9RUVEsXryYxo0bU6tWLa02v/32WyIiIpgzZw4TJ07UOXrLCxkqL4QQBUiHDh24ffs2s2fPpn///jqj/4yNjbGwsND5MTEx0SkzMzOjcOHCtG7dmidPnjBy5EiqV6+ORqOhWbNmmJqa4ubmxokTJ/D09Hzpvl+8eJF58+bRsWNHWrRoAUBiYiL//vuvWqdMmTIUL16c27dvv9S25MhLCCEKiJSUFPbu3UtcXBzu7u5s27aNTz75RGtknrW1NQ0aNNBaLz4+nsDAQJ3yLDdu3MDMzIwTJ05w6tQpBg4ciLW1NSkpKYSFhWFqakp8fDx2dnYAxMbGYmJionX6MSchISGsXr2aESNGaI2CNDExYe3atdja2lK5cmXCwsK4f/8+5cuXz8M7o0vCSwgh3rBbt25x8uRJgoODqVu3LpMmTcLCwoJr166xefNmFEWhXr16eHp66h3soCgKRkZG2bb//vvvY2RkxM6dOylZsiTr16+nY8eOrF27lg8++IDSpUuzcOFCBgwYQKlSpVi3bl22Azays3nzZp48ecLMmTPVsrJlyzJmzBiGDRvGxo0bSU1NxdzcnEGDBulcx8sreRilEEK8YVu2bKFMmTJ4eHhgZmams/zOnTucPHkSd3d3KlWqpJYfO3aMwMBAMjIycHFxwdvbW2ddjUbD/PnzcXV1pXnz5lhbW/P48WMOHz6Mm5sbrq6uAERGRnLu3DmdIfkFlYSXEEIIgyMDNoQQQhgcCS8hhBAGR8JLCCGEwZHwEkIIYXAkvIQQQhictyK8UlNTSUxMzHX9t3WA5dGjR4mJiXnT3RBCiHxnEEPlU1NTOX/+vE55iRIlKFWqFKtWrWLatGmEhITk2Na5c+fo3LkzR48e5eLFi9y5cyfbupUqVVJnd37Wjh07WLt2LevWrcv9jgAdO3aka9euFC1alEuXLj23bpMmTahTp476+ujRo/To0UNnQswslpaW+Pv7q8/XEUKIt5VBzLARHR1Nr169tMru3LnD559/zg8//MDOnTtp3Lhxju3cvHmTNm3a0L9/f5ydnZkzZ47OBJdPa9u2bbbhtXLlSipWrJin/UhMTGT37t2MGTOGJUuWcObMGRo2bKi37rZt2wC0wis1NZV79+6pr3ft2sXRo0fV1xqNBj8/P/7++28g85EEuX2wnBBCGJJXHl6//QvjdkF0Qs51Ha1hVhvo/+7z65UqVYorV65olWVNy5+WlkZgYCDJycls2LBBZ93BgwczZ84cNm/ezMCBA/H29mb69OkA/Pjjj7nbKWDBggVaz85JTEzE3NycJUuW6K3v7++vTkyZJSAgAEtLS959912WLFlCw4YNs10/ODhY/XdaWhpRUVFER0cDcPv2bSwsLHLddyGEeNu88vDKbXBBZr1xu3IOr+fZtWsXkPll//S0Kp999hnVq1dn0qRJXL16lX79+jF//nwGDBjAtWvX1ClRcmvw4MH06dMHgPHjx3P79m3WrFmTbf1nZ4IG8PPzo2PHjnkOnuDgYBo2bEh6ejopKSlUrVqVDz74gMDAQK2pXGbPnk2fPn3ktKEQ4q33ysMrN8F1YDD8fgpWBeU+6LLz448/4ujoyN69exk6dKha/vDhQ2rUqIGdnR12dnZcv36d4sWLs2vXLj799FNOnTpFXFxcju1XqFABOzs79REDd+7c4ffffycwMJBz585x+/ZtmjZtSsmSJZ/bzq1bt/jzzz9ZtGiRVh/Pnj2rt35Cwv+9MZ6ensTHx3Pw4EFat25NfHw8Go1GJzwzMjLYv38/Dx48UMsaNWpE2bJlc9xPIYQwJK/9mteBwdCkIpSzywyv3FAUhUOHDmmVRUdHEx0dzfHjxxk1ahR+fn5qeKWnp3P9+nUqV66s1i9evDihoaH07duX7777jqCgIJ2HvAE8evSItLQ0nJ2dAZg/fz4dO3ZUl8+YMQMLCwuGDRuGvb095ubmDBkyhCNHjuDh4ZHtPvj4+KDRaNSZn8uUKcOOHTvUa3khISHY2tpib2+vruPg4JBte/rCq1mzZpw/fx5/f3+io6OpW7cu5cqVk/ASQrx1XvloQ6Ovs182tSV82zLz302XwsH/PzhQyeHSk0ajwczMDDc3N63HAdy4cYP27dszevRo3nvvPR49eoS1tTWnT5+mfv36xMTEqKfowsPDadasGba2tvz777/ZPj5g5MiRXLlyhT179ugsCwoK4v3336dq1aqsWbNGDatBgwZx+fJlmjdvzrlz57h27RoDBw5k1KhRAJw8eZLGjRtjYWHB7NmzGThwoE7bderUoVu3bowZMybb9yHryCs5OZm4uDgKFy6st9706dPZs2ePOnBDCCHeNq/tyKtJxf8Lrv4b/i+48sLPz09r9F14eDimpqaULFkSR0dHAgMD6dSpExs3bqRJkyZqcJ04cYIOHTpgamqKg4PDc9uScxEAACAASURBVJ97k520tDQGDBiAp6cnAQEB2NnZERAQwOLFi9mzZw8pKSnUqlWLzp07U6VKFdzc3NR1f/jhB8aOHasOKPnf//7HTz/9pNX+tWvXmDdvns7R1ObNm9VRjY8fP0aj0fDuu+9SuXJl3nnnHb19PXToEBEREUyfPh0vLy+qVq2a5/0VQoiCLN/Cq1+dzCOtpv9/MN2BwZn/XRWU+9OFOXFwcFCPxHr06MGyZcto2bIlv/32m9YovtDQUIYMGYJGoyEo6MU2vnv3bqKjowkKCiIjI4MPP/yQK1euMHr0aMaMGUPDhg2ZMmWK1mm/LEOHDqVx48ZqeDVt2hQXFxd1+ejRo0lKSiIpKYk+ffrQtm1bdVmJEiW4fPky7du3JyQkBGNjY8aOHctHH33E5MmT9fY1ISEBjUbDgwcPSElJeaH9FUKIAk15xRib+XPrUebrW48U5cCNzH8fuPF/y5/+yUlaWpoCKP/++69a9vDhQwVQoqOjFUVRlLCwMMXS0lJp2bKl4unpqWg0GrVuRkaGoiiKMmnSJKVVq1bP3daIESOyrfPkyRNFURTlgw8+ULp06aIkJiYqiqIo0dHRCqBcvXr1uW1XqVJFWb58uVbZr7/+qlSsWFFxdXVV2rVrpzg5OSnXr1/XqhMdHa3s2bNH2bVrl2JhYaGWJyQkKD179lRu3LihVX/atGlK/fr1n9sXIYQwZPk2PVT5mRD6GMoVyzxlGPo48zrXi9B3mi82NhYAa2trIPNx0x07duSvv/7Cx8cHExOT567/IooUKcK1a9c4evQoCxYswMrKCgArKytq166ttc3cWL16NZMmTWLz5s0ULlyYRo0aMXr0aD788EPCwsLUeg4ODrRq1UrdXhYrKyvs7e2pX78+ly9ffvkdFEIIA5GvcxtmBRhkXud6USYmJpiYmHDmzBkiIyMJDw9n69atODo6YmVlRXJyMmPGjGHbtm28//77fP7557maKupF2NjYYGRkpHXTtLW1NUFBQbmecUNRFHx8fBg+fDjbtm2jZs2a6rKvv/4aLy8vPvjgA86cOfPcdoyMjPj555/p3bs3rVq1UgNdCCHedvk+YKP8zMzrXy8yQONpffr0YdKkSYwcORJTU1NsbW0ZPnw4y5cvx8fHh0KFCnH48GE8PDzw9vbm3XffZc6cOfTv3z/HtjMyMjA2zszxhIQErZudn1WyZEkmTpxI27Zt6dixIzVr1sTe3h4TExMSEhJ49OgRoaGhjBgxItuh897e3uzZs4d9+/ZpDUDJ8uOPP2JnZ0eDBg3YsWMHzZo1U/up7+juxx9/pGXLlhQpUgSAlJQUTE0NYuYvIYR4Ia/8G87RWvfG4+cN0HC0zl27K1eu1HqdkZFBlSpVSE9P5+uvv2bgwIFq6Pj5+fHbb78xZswYrK2t+fTTT5/bdpcuXfjzzz8xNzcnMTGRCRMmPLf+9OnT6dmzJ4GBgVy/fp3z58+Tnp6OpaUlRYoUwc3NjWLFimW7fs+ePfHx8aFEiRLZ1hk/fjweHh64u7vz8OFD3NzcSEtLo3z58jp1jYyMKFWqFGXLlsXS0pLIyEiduSCFEOJt8srv88qPuQ2zExoaiouLS7bXtKKjo7Gzs1OPVk6dOsWDBw9o1aqVVr1Hjx7x8OFD0tLSsLa21hoJ+Cpt2rSJ6tWrU6VKFZ1l+/fvp3Tp0nqnrVIUhfDwcJKTkylTpozWvW5ZUlNTuXTpEklJSVhZWVG9evU8X4MTQghDYRCPRBFCCCGe9lY8jFIIIcR/i4SXEEIIgyPhJYQQwuBIeAkhhDA4El5CCCEMjoSXEEIIgyPhJYQQwuBIeAkhhDA4El5CCCEMjoSXEEIIg/PSE/Peu3ePLVu2aD1/SgghhMiOi4sLnTt3pnjx4i/cxkvPbbho0SKqVq1KrVq1XqYZIYQQ/xGnT5/mypUrfP755y/cxkufNgwLC5PgEkIIkWu1atV66bN1cs1LCCGEwZHwEkIIYXAkvIQQQhgcCS8hhBAGR8JLCCGEwZHwEkIIYXAkvIQQQhgcCS8hXoKiKKSkpOR5vVu3bqHRaPKhR0L8N0h4CfESIiIiqFChwnPrPHjwgH79+qmvr127Rt26ddm2bRsBAQEEBARw5syZfO6pEG+Xl57bUIj/iiNHjjBixAitMo1GQ1JSkt5ZZnbu3EmJEiVITU3l5MmTAKSlpTF69GjatWtHcHAwALt27aJevXp4enrm/04I8ZaQ8BIilxo2bMjp06eJjIzExMSEmzdvMnv2bM6fP8/06dOxtLSkdevWVKtWDSMjIwACAgLYuXMnsbGxTJgwgfv37xMeHs6wYcMwMjIiMjKS8PBwRo4cSUBAALVq1cLR0fEN76kQBZ+cNhQij4YMGcJff/1FUFAQbm5uWstmzZrFV199RdZ816VLl6ZmzZqYm5uTkpLC1q1bqVu3Lv7+/owbN47du3dTrVo1rl27xpQpUzh9+vSb2CUhDI4ceQmRB/PnzycxMZFWrVrRvHlz/vjjDwAyMjIwNjbG19eXbt268dNPP/H1119TrVo1ihUrxpw5c5gxYwZ37tzB29ubJ0+eoNFoaNSoEdevX2fq1KmEh4e/4b0TwnDIkZcQufTvv/+ybt06lixZQrt27ejZsye3b9/Gw8ODP/74g2rVqmFubo6vry+bNm3izp07WutbWVlhYmICwJYtW2jSpAkWFhaEhYUREhJCfHz8m9gtIQySHHkJkUvvvvsuhw8fxsLCgunTp/P999+TkZHBunXr1DqXL1/G2dmZY8eOqUGVmJhIbGwszZs3x9HRER8fHxISEpgxYwYRERHs27ePiRMncv78+Te1a0IYHAkvIfLAzMyM33//nYULF1KpUiVCQ0OZN28ekDmScMeOHfzyyy90794dgCVLljBr1ixMTEyYOXMms2fPplmzZnTt2pUtW7Zw8uRJ5syZA8AXX3xBYmLiG9s3IQyJhJcQuXT27FkGDRpE/fr1WbRoEb1792b+/Pm0bt2ayMhIBg4cyIABA9TgAujWrRtt27alVatWBAQEEB0dzbZt29i2bRu3b98mPj6ekJAQtf7vv/9Op06d3sTuCWFQJLyEyKWqVavi7+9PyZIlAVi7di1DhgxhwYIFXL9+nVmzZtG5c2etdWxtbdWjqcmTJzN58mQAQkND6dChAw4ODkycOJGWLVu+3p0RwsBJeAmRS5aWlhgbG7N//37OnTvHnj17KFSoEA0bNsTS0pKZM2dy4cIFGjRoQPXq1XFycgIyp5AyNc38Xy0mJoY1a9bw+++/s2DBAtzc3OjXrx/79u1jyJAhlCtX7g3uoRCGQ0YbCpFLR48epWPHjqxfvx5LS0t++eUXDh48yIQJE9iyZQv+/v44Ozuzbt062rRpw4MHD9i0aROdOnWiUqVKLF26lCZNmvD48WP27NlD48aNcXJyYvv27bi7u9OvXz/69+//pndTCINgpGTdTfmCxo0bx4QJE15Vf4R4qyiKQmJiIoUKFUKj0WBmZvbc+mlpaTnWEeJtMHPmTGbNmvXC68tpQyHykZGREdbW1gC5CiUJLiFyR04bCiGEMDgSXkIIIQyOhJcQQgiDI+ElhBDC4Eh4CSGEMDgSXkIIIQyOhJcQQgiDI+ElhBDC4Lx0eLm4uMijy4UQQuTa6dOncXFxeak2Xnp6qHv37rFlyxbCwsJeqiNCCCH+G1xcXOjcuTPFixd/4TZeOryEEEKI102ueQkhhDA4El5CCCEMjoSXEEIIgyPhJYQQwuBIeAkhhDA4El5CCCEMjoSXEEIIg2P6sg0kJCS8in4IIYQwQJaWli+8romJyQuvK0deQgghDI6ElxBCCIMj4SWEEMLgSHgJIYQwOBJeQgghDI6ElxBCiHwxb968fGtbwksIIcQrlxVc+RVgEl658PjxYy5evPimu1HgZWRkqP+OjIzkyJEjWstzuifw6fX1efLkyYt3Lo9iYmK4fv36a9tedhISErhz586b7oYQefJsYOVHgL30wyj/Czcp+/n5MWfOHM6dO6eWpaSkMH/+fK16DRo0oH79+urrffv2cffu3ee23bNnT4yMjIDML2c/Pz+GDRuGsfHr+bvi77//5p9//lFfW1paUrx4cR49esTQoUMBePDgASNGjGD58uUUKlSIuLg4LCwsMDc3V9ebMWMGly5d4n//+x8Aq1atwsfHh2vXrgFw7tw5WrVqxaVLl7Czs9Ppx65du5g4cSKBgYE4OTnRvn17+vbtS/v27VEUhbCwMOrXr8/du3efe2Pj+vXreeedd6hevToAaWlp+Pr60qlTJ5ydnXP9vjzb/+xkZGQQHh7OtWvXOH78OKdOneLbb7997h87lpaWeHl55aofGzduZMaMGYwbNw4/Pz/mzp2Lm5tbrvdDiPz27E3KzwuqUaNGab1+mZuUX3qGjbw6ePAgXl5ePHjw4IXW79KlC5988gndunXTKp8/fz7Xr1/n119/fRXdBODEiRMsW7aMS5cuERsby4ABA4DML2pLS0umTZtG3759sbCw4K+//iI9PV0rvI4fP86FCxcIDAzE09MTR0dHEhISOHDgAC1btsTCwoIePXpgZGTEiRMnGDRoEFWqVOGzzz7Te9d6SkoKR48eJSgoiAcPHmBmZkalSpVo1aoVJUqUeO6+REdHU7t2bTZt2sR7772nlu/fv59du3bRpk0bQkJCOHr0KN27d+f69eu0adMGgNTUVLZt24aPjw/+/v788ssvrFmzhvfff58bN25w9+5dqlWrxuzZs1m2bBlubm5cv36dlJQU9ehr2rRpNGrUSP1Sr1u3rhp+J06coH///ixfvpwKFSoQFRVFYmIiaWlpLFq0iMjISFxdXXnvvfee+8seEhLC0KFD+fPPP9UyMzMzduzYwblz51i8ePFz36MX4eHhwaNHj4iJicHb25shQ4YQEBDAr7/+qvW7kOXevXvcvHkz1+FlZmZGWloanTp14s6dO7Ro0YKpU6cyaNAgtc6pU6fo168fFy5c0Fo3u3Ih8ktOR1jz5s3TCbAX9VqPvM6ePUu7du1ITEzk4cOHedrOli1bSE5OJjAwkFatWhEWFkb37t2Ji4tjz549mJmZcefOHdzd3XFycqJVq1Z53RUdf/zxBzNmzMDHx0ct69+/P0ePHsXCwoJq1aoRHR2NlZUVPXv2pFq1aowfP56MjAxMTf/v74KyZcvi6+tLy5YtuXnzJjVq1CAkJARnZ2euX7/Ojz/+iL+/P+PHj2fUqFF6j7p8fX3x8fHBxMSEKlWqcODAAQYNGsTFixc5deoUw4YNY8qUKXq/3B89ekSHDh04c+YM+/fv1wqv77//nsjISJYuXcro0aNRFAUbGxt+/fVXrK2tgcxfuL59++Lg4EDHjh0ZOXIk5cqVA2DEiBFs3boVFxeXXL2nqampXLx4Ud3/lStXMn78eKZNm8bgwYOxsbEhKiqKDh06MHDgQKKiooiMjOTWrVsEBQVRunRpAExNTTlw4IDabnp6Oq1bt6ZUqVKsWrVKa5uXLl2ifv36bNq0iebNm2sta9Sokd4/pOLj43ny5AmlSpXSux9Tp06la9euJCQkYGJigoODA+fPn6dChQrMmTOH3bt3s3fvXp31duzYwbBhwwgPDwdg+vTp3Lp1K9v36/bt25w+fZr27durr9PT09UjsMmTJ9OsWTNmzpzJN998w40bN/D29tZbPnjw4Gy3I8SLelPTQ72WIy+NRsPy5cuZMmXKC+9ocnIya9as4ejRoxw8eJBGjRoRHx9PYmIip06d4tChQ6SlpVG/fn28vb1fWd9tbW25ceMGKSkpjB8/Xn2zr169SrFixbCystKqf/HiRXr27Mn58+e1yrNODT5t+/bt9OvXjy5duhAUFKQ3ABRFYejQofz111/Mnj2bDh06cODAAc6cOcPcuXMBOH/+PH369CE8PJzffvtNa/3AwEBGjhxJXFzcc/czOTmZjRs34u/vj7+/Px07dsTX1xeAsLAwAE6ePImTkxPTpk2jYsWK9OjRA4CPPvqIiRMncubMmeduw8rKiqpVq1KtWjUgM1SmT5/Oxo0bady4cban6O7du8e+ffv47bffKFSoEDNnzuTdd9/VqjNt2jRCQ0NZs2aNzvrvvPMO48aN47PPPuPIkSNagfTrr7+Slpamvv73338ZPXo0hw4d0vuZZSlbtiwA1tbWJCcnP3e/n6dKlSoUK1Ys2+X29vb8888/eHp6YmRkRK1atQAoUqQIMTExxMTE8OWXXxIZGcn06dNp27ZttuVCvE1eS3gdO3aMb7/9lgkTJmBmZsa3336b5zZ69OiBqakpjx8/JjY2lhkzZlCmTBkAvv32Wzp37oyFhQXDhg2jZcuWr7T/TZo0oW3btuo1IMg8Enr26O7+/fvs3buX4sWLa5VnZGRgZmam027r1q25dOmSVv2goCA8PDzUI7eff/6Zffv2cfDgQXV/w8LC1CMfgBo1arBz507q1avHli1b6Ny5s7rMy8uLnj170qNHDz766KNs93HlypXUqFGDWrVq4e/vD2QG2pEjR9SBFBYWFgAEBwfrnKY8cOAA48ePp0OHDnrbv3XrFqGhofz1119q2TvvvENQUBB2dnb4+fkxceJEIPNoKCIigqlTp6LRaHjy5AmmpqYYGxvTsmVLfHx8aNasmdqOr68vv/zyC3v27Mn2uta4ceM4d+4cHTp0YO/evdja2gKo18ayREVFYWxsTO3atbN9r7KkpqZSt25dsk5edOjQAVNTUzp27EhiYqLOHzDwf38IZPnkk0+eu40bN26waNEiOnfuTMmSJXWWz507l5YtW+Lo6EizZs0YM2bMc8uFeFu8lvCqWrUqly5dwt7e/oWvSWk0Gn766ScWLVrE1q1bWb58Od9//z0ACxcu5LPPPqNKlSr4+PjQokWL5/7VnFeenp40aNCAo0ePArB161ZOnjzJoUOH1Do1atRgzZo1WFlZMXbsWCDzVJaiKKSlpWFkZIRGoyE9PV1dZmxsrBVcmzdv5vPPP2f79u3UrVuXhIQEZs2axYoVK9TgArh8+TIVK1bU6mOpUqX4/PPPWbFihVZ4nThxAjc3N71fpE9bt24dffr04dChQ5w4cYILFy7g4uKCu7s7I0aMAGDo0KFYWlpy4MABvvzySwA6d+6MRqMhIiICR0dHli5dqrf9P/74gylTpmBnZ8esWbMoXLgwAHZ2dly7do2xY8eyePFiKlWqpLVeRkYG7dq1o0KFCpw5c4Z27dpx8+ZNNbyXLFnChAkTcHV1ZcaMGc/dx/j4eBISEmjdujX+/v46f2QAxMbGYmZmpnPqMYupqSm9evUCMq9H+fr6cuzYMcaNG0f9+vUZNGgQwcHBmJiYMGzYML1t1KhRQ+v1tm3bSEpK0ls360grLCxMb3jt2LGD4sWLs3DhQpo2bcpnn31G8eLFsy0X4m3xWsLL0dHxpdswNTXl77//xsLCgpo1a2odycyfPx9FUTA1NaVZs2ZqcPXv35/Hjx/neVtDhw5Vj6o0Gg03b95kxIgRREVFodFoMDMzY+zYsRw+fFhdp1SpUowbNw5ADY/KlStz//59AHXwQxZXV1cgc0h2cnIyU6dO5Y8//mD16tXUrVsXyDyasbGx0Tnlc/HiRVq0aKHT7yZNmvDzzz9rleV2ZNrs2bPp3bs3w4YNo2HDhgwfPpwGDRrw008/sXnzZrZv386dO3dQFIWuXbuqgxEaN24MZI7OUxQl22uZ8fHxABQuXFjrS/3SpUt06tSJtm3b4uHhwcaNG3XWHTBgAKVLl+bw4cPcv3+fxMREKlWqRGxsLL/++iu///471tbWREREADB+/Hi6du2Kp6en2kZMTAzffPMNhw8fZvLkyWzcuJEvvvhCZ1t37tzBwsJCPfp82oMHD7hy5YoaXlmn8TZt2gRkBsmMGTOoWrUqXbp0ee77nZaWpv4O7969m5iYGPXftWvXxsnJCcj8PXFyciI0NJR69erptNO1a1c6duyIhYUF586dU4+OsysX4m3x2kcbvoys/wGfHqIN2hf9nv6ftHr16uqXZl44ODhw8OBBhg8fTmpqKk2bNiUuLo4mTZqQnp5Oamoq165dU79wskRGRnLhwgW6du2KiYkJwcHBxMbGUqlSJY4dO0aFChW4desW77//PhcuXMDKyoolS5Ywb948KleuzN9//0358uXV9m7cuKHzV3p6ejqnTp1Sj+6eVrhw4Re+daFu3bp4enri7OzMlStXCAoKwtfXlxMnTuDg4KB1j5W5ubnOKdPChQuTkZFBw4YNgcxh/4mJiVqnF7MGW2Q5efIknTp1IiUlhWrVqpGenk50dDRLlizhyy+/5ODBg1haWvLpp59SvXp1Fi5cyPHjx6lZsyYmJiYUKVKE06dPa/0hExsby/Dhw+nRo4f6RwBAREQE33zzDcWKFcPf31/vaVzIPKr9+OOPWbZsmc6ynTt36lxPzcjIYOvWrUDm6c4ffviBPXv2qH+0ACQmJmJubq41iGfmzJlqW0uWLFHLnZ2dGTt2rNYpXjc3N4KDg/X2F/7vd/7ZgMquXIi3gUGFV1599dVXL7xuYmIi48aNIyAgAB8fH3r16sWWLVtwdnamc+fOnDp1iv3797N8+XJ1nY8//pi+ffuqX4yFChXi3r17ALi4uGBtbU2hQoXUZRcuXGD9+vXMmTOHjh076vQhPT1d6wsPMgcUpKamao0YzHLv3j2991DlVs2aNTl79ix///037dq1o169eurtAVmCg4OZPXu2VtnDhw95//33ta5nLV++nD///JNt27Zp1Y2MjMTR0RFzc3MePXrEpEmT2LJlC5B5pDpgwACWLVvGtGnT+PLLLylatChDhgwhNTWVu3fv4uvry4cffqi292wIXbhwARMTE9zd3bXKs07XmpqaZhtcGRkZ7Nu3j0mTJuldnpqaqhME27Ztw8XFhYiICEaOHEmXLl34+++/ta5JVqhQgR9//DHXw+OfVadOHa178YQQb3l4vYxChQphbGysXpt5VuPGjZkwYQI//fQTY8eOZdWqVQQFBbFixQqteiEhIRQtWpQiRYrotNGiRQud03+zZs2iYsWKeHl54eLiwrp167SW+/v706BBA3UY+9MOHDigMwovL+7fv6+Ga+XKlfnggw906ui7s2LAgAEcOnRI64g4LS0NjUajXrPJkpCQoA7Xb926NYAaXpAZbvb29lpH05cvX6ZkyZI0a9aMnTt36pwafdr69eupV6+ezvuTkpICoO6fPvv37ycmJibbkXkxMTFan2NGRgazZs1i8ODB/P333zg6OuLr60tqaiqnT59W62k0Gm7duqVV5uHhkesb0Rs2bMiCBQuIi4ujcOHC3Lt3DxsbG2xsbHK1vhCvU1RUFDdu3CAiIoK7d+9ib29PpUqVqFKlCvb29q9sOxJez3H37l0cHBz0LitZsiSbN2+mffv2XLlyBX9/f9asWaNzUTwoKEhnRJs+Go2GyZMns3btWnbt2gVknoYaMmQIZ86cwdPTk8ePH7N69WqdmT0AwsPD8fX11ToSzC2NRoOnpyd3797lzz//ZMeOHUyZMoWZM2fq1M0KgWeNHTtWHS0IMGfOHDZt2sSxY8e06uX0hXv8+HHq1Kmjvj59+jTr1q1j+/btODg44OTkpHfgAmTeiL1+/XoWLlyosywmJgYjIyOKFi2qd12NRsOUKVPo3r17tiMWIyIitJZdvHiRJ0+e4OXlpV4/a9WqFYsWLdL6oyM2NhY/Pz+2b9+ulgUGBurcZpGdRo0aUahQIbZs2ULfvn35/fffOXnyJJs3b87V+kK8LvHx8Zw4cYKQkBC17OHDhzx8+JB79+7RuHHjVxZgBWZuQz8/P7y8vArUdFM3btygQoUK2S53d3enTZs2rF+/nkqVKukMr05PT2fdunVaw7r1uXz5Mq1bt2bPnj0EBgaq90E5OTnh7e3N4MGD2bt3L/369aNKlSo6gwGOHTtG27ZtadGiBR9//HGe99PU1JT169cTEhKiBse8efO4du2azk92o/DyIruRoGlpafzvf//jww8/JC4ujps3b3L+/Hl+++03QkJC2L59O05OTjqnLSHzlF6PHj1wd3fXO1jixo0bODo66pyGzZJ1T9TkyZOz7ffJkyfVgTaQeU113bp1OqchP//8c44cOaL+2NnZMXXqVK2y5wVXeHg469at44svvqBevXqYmZnh7e3Nr7/+SkZGBhcvXtS6NipEQXH+/Hmt4HpaWFgYV69efWXbKjBHXleuXGHPnj1oNJo33RUg88vw+PHjfPHFF1StWlW9YVej0ZCUlISvry/z58+nUKFCbNq0idWrV1OrVi3GjRvHgAEDKFSoECtWrCAyMpJ+/frp3UbWlEUbN26kb9++fP/99zpHJtOmTWPkyJH06tWLOnXqsG7dOvV00927d/nwww+5ffs2AwcOzHGo+PM8/aUMmacgnx2QAuQ4158++/bt48KFC+rNvNkd/cyYMYOUlBR69erFmDFjsLW15fjx4xw7dowvv/ySTZs2UapUKRo0aEDFihXp2rUrkPk+fPbZZ0RERLB37171/YmIiMDKyoqMjAw2bNigcwoTMu9l++KLL9i+fTvbtm1Tj6ySkpLYsGEDxYoVw9ramsuXL3Po0CF+//13rfU9PDy0blKOjIwkKipKq46+04bFihWjfPny3L17l61bt3L9+nWuXLlCYmIiU6ZMoU6dOjRs2BBvb2+MjIwYNWoUq1at4quvvuKvv/5i0aJFef0YhMhXGRkZzx1YBJl/ROq7HPEiXnt4DRs2TO/9Lz4+PlrTML1pQUFBmJmZUb9+fSwtLfnxxx/p27cviqLw3XffcffuXcaOHavePN26dWsCAgKYOXMmYWFhzJ49m82bN/PNN9+ow56flp6ezrBhw3B3d+eff/6hatWqevthYWHB4sWL9c7L5+zszIwZM/jggw+yPb2ZXUMLsgAAIABJREFUpUaNGnkaeRkeHq73KEXfDOfu7u7qjBP6JCcnc+PGDVJTU5k4cSKVK1fWW+/ff/9lxYoVWFlZMWvWLGxsbLh16xZTp07F399fHSq+efNmJk+erIZXz5491cEWT8+e0axZM3ViZHt7e53rhwCHDh3iwIED7NixQ2sQTEZGBv/73/+Ii4sjPj4eKysrRo4cqXdgzdM2bNiAn5+fVpm9vT1r165l7dq1alnTpk2ZO3cusbGxnDx5Uh2sMn/+fCpXrqxzPczOzo4VK1bQq1cvSpcurXPrhRBvWkJCQo5nzhITE1/Z9mRW+ecIDw9Xv5Rv3rzJgwcPKFGiBPb29s+98J+UlISVlRUJCQkUKlRI6zSZRqMhMjKS0qVLY2xs/Epvpn4RISEhJCcnq6cqAY4ePUrFihX1Xvt59OgRZ8+ezfFUaHBwMDdv3lTn5Hue3bt3U6ZMGapWrao3MJ++JyqLRqNR6967dw9HR0e986QlJSWRmpqa7dFeVp3cXn/SJz09ndWrV9OlS5dsB/i8KjExMVhYWLxUf4V4lZ6e8i83jz55emLel5nbUMJLCCHEC3tT4VVgBmwIIYQQuSXhJYQQwuBIeAkhhDA4El5CCCEMjoSXEEIIgyPhJYQQwuBIeAkhhDA4El5CCCEMjoSXEEIIgyPhJYQQwuBIeAkhhDA4El5CCCEMjoSXEEIIgyPhJYQQwuBIeAkhhDA4El5CCCEMjoSXEEIIgyPhJYQQwuBIeAkhhDA4rzW8MjIyWLFixUvXEUII8d9m+ro2tHXrVjZt2sTevXs5deoUQ4cOpUaNGnmuI4QQQryWIy8fHx/69OmDlZUV1tbWXL58mWbNmnH+/Pk81RFCCCHgNYRXQkICc+fOZdy4cSxZsgRnZ2cCAwMpUaIEs2fPznUdIYQQIku+nzaMiIggOTmZRo0aqWXm5uYsWrQIY2PjXNcRQgghsuR7eDk7O2NiYsLff//NBx98oJY3bNgwT3WEEEKILPkeXsWKFaNXr17MnDmT0NBQkpKSSEhIwNraOk91hBBCiCyv5ZzcggULmDFjBkeOHOHGjRuULVuWsWPHkpycnKc6QgghBLym8DIxMeHLL7/kwoULlC9fnsGDB7Ns2TLGjRuXpzpCCCEEvIEZNmxsbPDx8WHs2LH4+fmRmpr6QnWEEEL8d+V7eB09epTmzZvz+PFjrfJq1aqRlpZGdHR0ruoIIYQQWfI9vCwsLDhx4gR//vmnVvmJEyewsbGhZMmSuaojhBBCZMn30Ya1a9emfv36jBkzhuTkZBISEpg1axZLlixhwoQJGBkZ5aqOEEIIkcVIURTlZRpISEjIsc6jR4+YMGEC27dvJy4uDkdHR/r27cvkyZMxMTHJdR0hhBAFi6WlpfrvefPm5Vh/1KhR6r9f5rv9tYRXlrS0NBo1asSxY8deqo4QQoiC4U2F12sdbWhiYsKAAQNeuo4QQoj/ttcaXsbGxgwcOPCl6wghhPhvk1lvhRBCGBwJLyGEEAZHwksIIYTBKZDh9fnnn/Ptt9/qlB8+fJgaNWpgb2/P8OHD87UPGo2GAQMGYG9vz9y5c7OtV6FCBXx8fHLVpru7O5UrV2bnzp06yw4ePIi7uzuOjo7Zrn/t2jVsbGw4cuRIjttas2YNdnZ2dO/enaSkpFz1L6+y+zy2bdtGp06d8mWbAB999JHe91AI8d9RIMOrRYsW7N27V6d8ypQpKIrCrFmz6N69e772Yf/+/WzYsIHvvvuOjh07vpI2f/75Zzw8PPj66691ln377bcUL16clStXvpJtNW3alLlz5xIYGMiWLVteSZvP0vd5xMTEMHr0aKZPn54v2wTw8fFh1KhRPHnyJN+2IYQo2ApkeDVt2pTg4GAePHigVf7o0SPatm3LwIEDqV+/fr72ITQ0FEdHR4YPH06FChVeSZvNmzenT58+hIeH6yy7desW3bp1o127dq9kW6VKlaJfv364urrq3d6roO/zmD9/Pp6enlSrVi1ftgng6elJ1apVWbhwYb5tQwhRsBXI8CpWrBienp7s378fgKioKGxsbLh58yYLFy7ExsaGa9eu4eXlxYgRI/Dy8sLe3p4xY8YAEBgYSMuWLXF2dsbBwYEGDRoQEBCgtY3g4GA6depE8eLFKV++PEOHDtWaGDg1NRULCwutdcLDw+natSvOzs64ubmxdetWreUNGjTAy8tLqyw5OZkSJUqwdOlSAMzMzFAURWemfH3bO3z4MI0bN1b34fLly+qy0NBQnJ2d6du3r1p269YtnJyc+Oqrr9QyMzMzUlJSsn2vIyMjsbGxyfbn559/1lknu88jISGBFStWaL0Ho0aNwtbWlkuXLqllI0aMwNnZmdDQUJ22J0yYQOnSpXXen/bt29OzZ0/1defOnVm2bFm+nRIVQhRsBTK8QPvUoYODA6dPn6ZMmTL07t2b06dPU65cOQDWrl2LmZkZP/30Ex9//DEnTpzAy8uLqlWrsnbtWnx9fTE1NaVv377ExcUBmSHUokULHj9+zJIlS/jhhx/466+/8Pb2Vrf/5MkTChcurL5OSkqiTZs2XLlyhcWLF/PNN98wbtw4Hj58qNbp0aMH+/bt49GjR2rZ7t27SUpKokuXLkBmMANadTQaDYmJiRQpUkQtCw4OpmPHjjg4OODn50eHDh0YNGiQurxcuXJMnTqVzZs3c+jQIRRFYdiwYTg7OzNt2jS1nq2trda2nlWsWDEWLlyY7U+LFi101snu89i3bx/x8fG0bdtWrTtt2jRKlCih3lV/5MgRVq5ciY+Pj/oZPq1nz57ExMRonTaOiori0KFDWqeK27Vrx6NHjzh48GC2+yaEeHvl+8S8L6pFixb06NEDyJx1w9XVFVNTU4oVK4arq6taz8TE5P+1d99RUVz9H8ffS28i0sSgIqISFewR7BU1xYIae362GFs0aorGEo1GkqiJGmssMWoiYMUaJJaAqKjYsQsWpFiiSK/L7w8O87AuSzDWfZ7v65w9J3vnzszdwexn79w7M6xatQpLS0sAVq5cSYcOHVi0aJFSx9nZmdatW3PmzBlatGjBkiVLMDAwYMeOHUpgWFpaMnnyZB4+fMidO3cICAiga9euyjY2bdrErVu3iIyMxN3dHQA3NzeNL/devXoxZcoUtm3bptwlJDAwkA4dOmBvbw9AnTp1cHBwwM/PjxkzZmBkZMSSJUswMzOjadOmyrYWLlyIo6MjAQEBGBsb884776BWqzWCacSIEWzZsoXPPvuM4cOHEx4eTkhIiHIsAHx8fPjuu+/o378/jRo10rodi4WFBYMGDXqqv42uv0doaChVq1bFyspKqWtlZcVPP/2Er68v69evZ86cObRr107nXVQ8PDzw9PRk48aNvPPOOwBs3rwZa2trOnTooNSzs7OjcuXKhIeH8/bbbz9V+4UQ+u+1Da9GjRqRmZlJVFQUHh4eOutVq1ZN48t62LBhDBs2jPT0dK5du8b169c5ePAggHL67NixY7Rs2VKjp/Pee+/x3nvvkZaWRtOmTenWrRvTp09XlkdERODq6qoEF4C3tzeOjo7Ke3t7e3x8fNi0aRNDhw7l0aNHhISEsHr1aqWOubk5f/zxB+3btyctLY3y5cuzcuVKdu3apTHTMCIigvbt22NsbKyU+fr6aoSXgYEBS5cupWnTpkyYMIExY8bg7e2tcXw+/vhjoqOjadeuHefOndMav1Or1SU+L61MmTJYWFjoXF7U7du3qVixola5j48Pffv2ZfTo0ZQpU0brFO6T+vXrx6xZs0hLS8PS0pKAgAB69uyJiYmJRr3KlSu/sPE8IcTr7bU9bWhoaEjr1q2LnXVYVPny5TXep6SkMHjwYN544w2aN2/OjBkzlLGswnsQP3z4UOeUdDMzM3788Uf27t3L4cOHlfKkpKRi13FyctJ4379/fw4fPkxcXBxbt27FzMxMq2fw7bffUr16dUaPHs0HH3yAt7c3M2bMoOg9kh89eqT01nTtC8Dd3Z169eqhVqvp2LGj1vLz58+zYcMGvvnmGypUqKC1PCEhATc3N52vlStXFnucivP48WOdQdenTx/UajWenp7/+Hy23r17k52dzZ49e7h+/TqnT58udnappaUlycnJpW6fEOK/x2vb84KCU4dbtmxh3LhxOus8+ayvMWPGcODAAX7//XdatWqFlZUVFy5cYPv27UqdsmXLas1kzMrKIjQ0FC8vLz766CPOnj3LsmXLaN26NQC2tracP39ea/9Fx7yg4BqksmXLsnPnTvbs2UP37t017rp89+5dtmzZQlhYGA0aNABg+fLluLu7c+7cOerWravs7969eyXuCwpOSx4/fpxatWoxfvx4jhw5ojHx45dffqFly5Y6j6G9vb3WxJOiip6i/Sd2dnYkJSVplWdnZzNp0iRq167N4cOH2bBhg3JKuDiOjo60a9eObdu2cfPmTapWrUrjxo216j169IjKlSuXun1CiP8er23PCwrC6+jRo6Snp5d6nYiICDp27Mi7776rjL0UDuoX9my8vLwICwsjNTVVWe/gwYN0795dOYXm6urKtWvXlOUtW7bkxo0bnD59Wik7d+4c8fHxGvs3MTGhZ8+eBAYGEh4ertVjKNxmtWrVlDJnZ2dMTEy4fv26UtaqVSuCg4M1PvuePXs0tvXgwQO++OILBg4ciL+/Pzdv3uT777/XqHPlyhXc3Nx0Hi9TU1N8fHx0vlxcXHSu+yRnZ2fi4uK0yufOncuNGzfw9/fngw8+YOLEiSWeqoT/TH7Zvn27zmv6EhISqFSpUqnbJ4T47/Fah1elSpVwcXEhPDy81Os0aNCAvXv3sn37dk6ePMm8efOUu3UUTqv++OOPUavVdO3alR07duDv788nn3xCly5dlFAxMzPTCA5fX188PT3p27cvgYGBbNy4kX79+mlNb4eCL94TJ07g5OSkMQkDULZpbm6uUW5qaqrxbLQJEyaQlpZG9+7d2bVrF4sWLdIKpsJLA2bOnImbmxvjx49n/vz5Gj3EjIyMUo9ZPavWrVsTExOj0UO8ePEi8+bN49NPP6Vq1arKmF3R6fzjx49n8uTJGtt69913MTIy4syZM/Tp00drX4mJidy+fZu2bdu+oE8jhHidvdbhBbrvtqHLDz/8QNOmTRk5ciRdu3YlODiYgIAAKlWqxLFjx4CCaeZ79+7FwsKCoUOHMm3aNDp37qwxvmNiYoJarVbeGxsbs3PnTry9vRk3bhyTJk1i9OjRVK9eXasNjRs3xsbGhj59+mid1szLywO0H8L25P5cXV0JDg5GrVYzePBg1qxZw5IlS5Tlf/zxB5s3b2bWrFnY2toCBWFWsWJFRo0apewnLy/vpT2Jum3btlhaWrJ//35l36NGjaJy5cpKWNnZ2fH111+zbds2du7cCUB4eLjWw0fNzMxo2bIl3t7euLq6au1r37592NravvCL1YUQr6fXeswLYM6cOcp/PznmtHnzZq36FSpUICAgQKu86AW+UDBlvfDLsziWlpZaF8Da29vz66+/apSNHDlSa93IyEiSkpI0LqotlJaWhomJCQYGmr8brKysyMzM1CirX78+ISEhGmVFT3UW/W8o+MJ/8hilpqZqjLk9T0/uy8LCguHDh7Nu3Tp69eqFoaFhsddhDRkyROOaul27djFs2DCNOpmZmYSHh2vMrizq119/ZdSoURqzMYUQ/zte+57Xq9KoUSMePXrEnDlzNMaiSnLq1Cn8/PwYPHgwnTp10hpr+uOPP1ixYgWenp5a6zZs2JDffvuNoKCg59L+2NhYFi1axPXr14vd34vyySefcP78ec6dO1fqdWbPns17770HFMzq9PPzo1u3bhgZGdGrVy+t+idOnCAmJqbYHw5CiP8NEl46uLu7M3bsWH744QeNmYolSU9P56effqJcuXIsWLBAa/lnn31GQkIC8+bN01o2ceJEMjIyNO6i8SxCQ0OZPn06gwYN0ri490UrvAv/1KlTS73O8OHDlc9tamrKihUruHnzJr/88kux43VTpkxhwYIFlC1b9rm1WwihX1T5RS8u+heKTjIQQgjxv6XosMT8+fP/sX7hreJAe+z/aehlz+vGjRv8+eefz1xHCCGEfnrtJ2wUlZWVxYoVKwgKCiI+Pp7u3bszbtw4jTtflKaOEEII/aY3Pa/8/Hx8fX3x8/PDwcEBOzs7Nm/eTPv27ZW7xZemjhBCCP2nN+EVFhZGWFgYAQEBDB8+nKZNm7J7925iYmIIDAwsdR0hhBD6T2/C6+rVq6hUKpo3b66UVatWjbVr19KyZctS1xFCCKH/9GbMq0KFCuTn53PkyBGN8u7duz9VHSGEEPpPb8LLx8eHmjVr0qtXL9q0aYOVlZXWrY9KU0cIIYT+05vThqampoSEhNC3b1/++usvNmzYgKurK2vWrHmqOkIIIfSf4YzCW67/Szk5Oc+pKf/M3Nycjh070qBBAx4+fIiLiwsLFy6kRo0a1KpVq9R1hBBCPB9GRgUn8NRqNVFRUSVmgr29vfLMQkDrHq9PQ296Xk9yc3MjMDCQZs2a6Xzab2nqCCGEeHYGBgZ4eHiUWKekZws+9f6e25ZesJUrVzJgwACt8lq1aikPhCxNHSGEEC9GnTp1qFq1arHLXFxccHd3f2770psJG2lpaezYsYOYmBiN8hMnTigHpDR1hBBCvBhWVlZ4e3tjb29PbGwsCQkJ2NnZUa1aNdzd3bGzs3tu+9KbG/Pev3+fRo0aYWtri6+vLxcvXsTKyoqAgABCQkJo2rRpqeoIIYR4fnQ9L7A0M72fZSa43oQXFDz88Msvv+TIkSPk5OTg6urK1KlTNZ75VJo6Qgghno9nedjt/0x4FTpw4ADBwcEaT1n+N3WEEEI8m1cVXnozYaMoV1dXfHx8nrmOEEII/aSXPS8hhBCvB+l5CSGEEKUk4SWEEELvSHgJIYTQOxJeQggh9I6ElxBCCL0j4SWEEELvSHgJIYTQOxJeQggh9I6ElxBCCL0j4SWEEELvSHgJIYTQOxJeQggh9I6ElxBCCL0j4SWEEELvSHgJIYTQOxJeQggh9I6ElxBCCL0j4SWEEELvSHgJIYTQOxJeQggh9I6ElxBCCL0j4SWEEELvSHgJIYTQOxJeQggh9I6ElxBCCL0j4SWEEELvSHgJIYTQOxJeQggh9I6ElxBCCL0j4SWEEELvSHgJIYTQOxJeQggh9I6ElxBCCL0j4SWEEELvSHgJIYTQOxJeQggh9I6ElxBCCL0j4fUSxMXFER0d/cL3o1arS1z++PHjF96GQklJSVy7du2l7U+XtLQ04uPjX3UzhBDPmdGrbsCrFh4ezuHDh5X3ZmZmODk58fDhQ0aOHAnAgwcP+OSTT1i5ciUWFhakpKRgamqKiYmJst6IESNo0qQJAwcO1NrH9OnTycnJYe3atVrL9u/fT0JCQolt7N+/PyqVCigIoHXr1jF69GgMDP7z22PPnj1MnjyZkJAQHB0d6dKlCwMHDqRLly7k5+dz69YtmjVrRkJCAoaGhjr3FRgYSK1atfD09AQgJyeH1atX4+vrS/ny5UtsZ1FBQUH4+flx9erVEuup1Wpu377N1atXiYiI4OTJk8yYMYMLFy7oXMfMzIyePXuWqh179uxh9uzZTJw4kXXr1vHjjz9Ss2bNUn8OIcTr6aX0vHJycpg3bx716tXD0dGRRo0asWrVKvLz8596Wz169CAgIECrfMGCBYwePVrnevfv36dy5cocP35co/zAgQNs27aNrKwsLl68yOLFi7lw4QJhYWHcunWLW7du8ejRI7Zv3879+/dZuHAh9evX59SpUwDk5uZy7do1tm3bho+PD1euXCEjI4Nx48ZRv3596tevT1BQEAcPHlTe169fX9l/REQEu3btYuzYsaxZs4Zdu3YRGBjIiBEj2LJlC7t27VKO07Fjx2jZsiWHDh0iOztb2caxY8cYPHgwM2fOpGrVqqSlpZGenk5OTg5Lly5l6tSphIaG0rhx4xKDKzo6mpEjR5KSkqKUGRsbs3PnTmbMmFHyH+ZfqlevHs2bN6d79+48ePCAESNGsHfvXr788kt27dql9Vq1ahUTJkwo9faNjY3JycnB19eX9u3b0759e1asWKFR5+TJk0pYl6ZcCPHqvZSe17Rp0/jll1+YNGkSderUITQ0lAkTJpCens7YsWNLtY2tW7eSmZlJmTJlyM/P57vvvqNv376kpKQQHByMsbExVlZWrF+/HkdHRzp27Kis+/DhQ7p3787Dhw+L3XbdunX56quv+PTTT+ncuTMAISEhSo9s/vz5ALRq1Ypu3bqxb98+qlSpQnZ2Np07d6Zs2bIMHz4cOzs7OnbsiJ+fH3fu3KFz58706dNHY19nz55l2LBhyvspU6YAULlyZSZNmoSPjw8xMTHUqVOH5cuXU758ea5du8acOXMICgpi0qRJjB8/Xul1FR7XWbNm0aVLF53Hb+/evVy4cIEWLVoAYGRkxMGDB5XleXl5jBgxgi5dutC0aVONdefOnUuzZs3o2bMn7dq101jWsmVLHjx4oLW/1NRUHj9+TK1atYptz/Tp0+nduzdHjx7F0NAQe3t7xo0bR9WqVbl48SLu7u7F/kjZuXOnxo+Ub775hhs3buj83Hfu3OHevXvKOh4eHmzcuBFvb29q1qzJtGnTaNu2Lfb29uzfv5/r168zZMiQYsuHDx+ucz9CiJfrhYdXeno6P//8M1999RXjx48HoH379jx48IBFixaVOrwyMzP57bffOHLkCH/99RctW7YkNTWV9PR0Tp48SWhoKDk5OTRr1owhQ4Yo64WEhDBu3DiN3oSu7W/atImgoCCCgoLo1q0bq1evBuDWrVsAHD9+HEdHR2bNmoWbmxv9+vXDwsKCQ4cOsXLlShYuXEjlypXp3Lkza9eu5cGDB1pjXXFxcTrbUHhqsKgdO3YwaNAgevToQWRkJC4uLsqyixcv8s0337Bp0yZatWql8xRdYmIi+/fvZ82aNVhYWPDtt9/y1ltvadSZNWsWN2/e5LffftNav1atWkycOJFhw4Zx6NAhnJ2dlWVLliwhJydHeX/ixAk+/fRTQkNDi/08hSpXrgyApaUlmZmZOuv9E3d3d8qVK6dzuZ2dHYcPH6Z+/fqoVCoaNGgAgLW1NUlJSSQlJTF27Fji4uL45ptvePfdd3WWCyFKVvhDvySFOfCsXnh4paSkMGLECN577z2N8ho1arB+/Xpyc3MxMvrnZvTr1w8jIyMePXpEcnIys2fPplKlSgDMmDGD7t27Y2pqyujRo/Hx8VHW69mzJ/3796dfv368/fbbOrf/yy+/UKdOHRo0aEBQUBBQEGiHDh1SJkKYmpoCEBUVRYUKFYCCP5aXlxd//vkn8+fPZ9y4cZw4cQKAyMhIrd6ert6fWq3G2NhYq7xTp05cvHgRJycnpSwyMpJ69epRq1YtIiMjsbW1Zd26dUyePBko6A3FxsYyffp0cnNzefz4MUZGRhgYGODj44Ofnx9t27ZVtrd69WoWLVpEcHCwznGtiRMncvbsWbp27cq+ffuwsbEB0DqtdvfuXQwMDGjYsGGx2ykqOzsbLy8v5bRo165dMTIyolu3bqSnp3Pu3DmtdQp/SBR6//33S9zH9evXWbp0Kd27d+eNN97QWv7jjz/i4+ODg4MDbdu25bPPPiuxXAih2/jx40sMsOcVXPASwqt8+fJ8++23WuXBwcHUrl27VMEFBWNLc+fOZenSpWzbto2VK1cyc+ZMABYvXsywYcNwd3fHz8+P9u3bK7/6jx07Rs2aNYv9IizK39+f//u//yM0NJRjx45x/vx5XFxc8PDw4JNPPgFg5MiRmJmZcfDgQaXHWKVKFb744gsGDRrE1KlTMTIy4tdffwVg4MCBWuNwR48e1QjXvLw88vPzycnJQaVSkZubS15enrLMwMBAI7i2bNnCqFGj2LFjB15eXtja2nL16lU+//xzli1bRrVq1TT2p1ar6dy5M1WrVuX06dN07tyZmJgYqlSpAsDy5cv58ssvqVGjBrNnzy7xGKWmppKWlkanTp0ICgrSaFeh5ORkjI2NlWPwJCMjIwYMGAAUjEetXr2ao0ePMnHiRJo1a8ZHH31EVFQUhoaGOscw69Spo/F++/btZGRkFFu3sKd169atYsNr586dODk5sXjxYtq0acOwYcNwcnLSWS6EKJmuAHuewQWgyv83syaKSEtLe+p1Vq5cyfjx4/H391fGmEojKysLU1NTsrOzMTY2VgKqMACMjIyUOk86d+4cTZs25cCBAzRu3FgpnzlzJnFxcQwZMoQPPviA0aNHk5KSQt26dWnevDlz584lLi6OgQMHEh8fT35+vtaY2oIFC1i9ejUBAQGcOnWKmTNnUrduXa5cuaJxig0KvtzPnTtHamoqAFWrVuXevXslfu6kpCQyMzOZPn06AQEBrFmzhg4dOgAFpw59fX1p1qwZU6dOZdOmTVrrZ2RkULFiRcLCwpg3bx61a9cmMTGRtLQ0mjVrxuzZs7G0tCQ2NhaASZMm0bt3b42JJUlJSUydOpWwsDCmTZtGp06dGDNmjNa+5s+fz9y5czWOcaEHDx5w+fJlrTGyyZMn89NPP1G2bFnOnTuHubn5P07mMTExUXqqI0aMICkpCYA//viDhg0b4ujoCMAXX3xBz549mT17Nn379i12W4X/Zp78t6OrXAjxH2ZmZsWWFw0wXcFV0gSyf/LSp8qvX7+eTz/9lEmTJj1VcMF/TtsVnaIOmgfg337JeHl5Ub9+fcqXL8/ly5eJjIxk9erVHDt2DHt7e41rpExMTOjYsSOJiYm4u7sDBeNVHTt2xNXVleTkZEaMGIGtrS1QMB1/+vTp7NixA0tLS6Kjo0lKSsLGxoaoqCiSk5OpVq0aR48epWrVqty4cQNvb2/Onz+Pubk5y5cvZ/78+VSvXp3w8HBcXV0Fe3SHAAAXNUlEQVSBgjE4X19fsrKyqF27Nnl5edy/f5/ly5czduxY/vrrL8zMzOjVqxeenp4sXryYiIgI6tati6GhIdbW1pw6dUrjdGVycjIff/wx/fr1w8vLSymPjY1l6tSplCtXjqCgoGJPcQJcunSJ9957T2tGH8Du3bs1xiOhoGe4bds2oOB053fffUdwcLBGoKenp2NiYqLRS//222+VbS1fvlwpL1++PJ9//rnGKeKaNWsSFRVVbHvhP/9mnvy3o6tcCPHPCntgz7vHVeilhte8efP4+uuv+fLLL5XxmddJ3bp1OXPmDOHh4XTu3JkmTZowdOhQjTpRUVHMmzcPKPiiPHv2LNbW1nz++eeUL1+eDz/8kF27djFlyhRlIkHLli3JycnhwoUL9O/fn6FDh/L48WM+/PBDLCwsSExMBMDFxQVLS0ssLCwAsLCw4Pz58wQGBvLDDz/QrVs3jbY8fPiQKVOmsHXrVgCqV6/O0KFDWbFiBbNmzWLs2LGULVuWESNGkJ2dTUJCAqtXr1Z6bYBWCJ0/fx5DQ0M8PDw0ygtPZRoZGekMLrVazf79+5UZlE/Kzs7WCoLt27fj4uJCbGws48aNo0ePHoSHhyunNaGgdzpnzpxSX9v1pEaNGmlcyyeEeDleVHDBSwyvL774guXLl/PDDz/w0UcfvazdPpV79+4pwVG9enWtKeOAxukslUrF77//Tm5urlL2ySefMHbsWBYsWEBubi79+vWjQYMGmJqaMnfuXLZu3Yqnpycffvihsk50dDRly5bF2tpaa3+F1yYV9f333+Pm5qZ8mReGFxTMZrSzs9PojV66dIk33niDtm3bsnv3bhYuXKjzGAQGBtKkSRMsLS01yrOysgCU41OcAwcOkJSUpHNmXlJSksZnVKvVfP/99wwfPpzw8HAcHBxYvXo12dnZynV0UDDeeePGDY2yevXqaVykXZIWLVrw008/kZKSQpkyZUhMTMTKygorK6tSrS+EeP28lPCaM2cOP//8M+vWrdPqPbwOcnNzqV+/PgkJCezatYudO3fy1VdfFTvRpPBLvFBsbCxeXl7cvn0bAFdXV+Li4hg0aBDff/89tWvXpkmTJgQFBeHl5UVkZCS7d+/W2EZkZGSpLobNzc1l2rRpbNiwgT179hRbJyIigkaNGinvT506hb+/Pzt27MDe3h5HR8diJy5AwYXcgYGBLF68WGtZUlISKpWKsmXL6mzbV199Rd++fXXOWIyNjdVYduHCBR4/fkzPnj2V8bOOHTuydOlS/P39lXrJycmsW7eOHTt2KGUhISGYm5sXu58ntWzZEgsLC7Zu3crAgQNZu3Ytx48fZ8uWLaVaXwjx+nnhd9i4ceMGfn5+eHp6EhcXx5IlSzRehWGwbt06evbs+a8mgDwrIyMjAgMDiY6OVr7458+fz9WrV7VeT86iu3r1KjVq1FDeF4bX5s2bWbx4scZ4zLfffktSUhLr1q1TyvLy8vD399eYul6cS5cu0alTJ4KDgwkJCaF27dpadXJycvj999/p0KEDKSkpxMTEcO7cOdasWUN0dDQ7duzA0dFROe1ZVHZ2Nv369cPDw4MePXpoLb9+/ToODg46Z4cWXhM1bdo0nZ/h+PHjGsfK09MTf39/rdOQo0aN4tChQ8rL1taW6dOna5SVFFy3b9/G39+fMWPG0KRJE4yNjRkyZAhLlixBrVZz4cIFZdxQCKGfXnjPKzg4mNzcXM6cOcOZM2e0lg8YMABTU1MuX76s1H0Vin6pAhw8eFCZwVZU0QuBc3JyiIqKol69ekrZ2LFj+eGHHxgzZgxBQUFUqVKF06dPY2hoiJOTE6tWraJv375YWlrSp08fVq1apfTUinP27FmWLVvGpk2bGDhwIDNnztR5umv27NlkZWUxYMAAPvvsM2xsbIiIiODo0aOMHTuWzZs34+zsTPPmzXFzc6N3794AJCQkMGzYMGJjY9m3b59yOi42NhZzc3PUajUbN25Upp0XlZmZyZgxY9ixYwfbt29XelYZGRls3LiRcuXKYWlpyaVLlwgNDdW6v2O9evU0LlKOi4vj7t27GnWKO21Yrlw5XF1dSUhIYNu2bVy7do3Lly+Tnp7OV199RaNGjWjRogVDhgxBpVIxfvx4fv31VyZMmMCff/7J0qVLiz2GQgj98MLDa+TIkcoNbkvi5+eHn5/fC2tHnTp1lOnppXH79u1iexlF71Cem5vLokWLNMaHDAwMSEpK4sCBA6SlpVGlShUyMjKUqeMdO3Zk8eLFnDt3jj59+rBlyxamTp2qTO0uKi8vj9GjR+Ph4cHhw4d58803S2zziRMnWLVqFebm5nz//fdYWVlx48YNpk+fTlBQEE2aNAEKrhWbNm2aEl79+/dXJlsUndrftm1b5abBdnZ2GqfyCoWGhnLw4EF27typMT1erVbz+++/k5KSQmpqKubm5owbN+4fTxtv3LhRo2dauO8NGzawYcMGpaxNmzb8+OOPJCcnc/z4cWWyyoIFC6hevbrWeJitrS2rVq1iwIABVKxYkXfeeafEdgghXm+v5Dqv10l0dDSZmZkap+GOHDmCm5tbsWM3Dx8+5MyZM1qn+QpPZRUdb8rJyeHOnTuo1WoqV65c7Cy9tLQ0LCwsNG6llJubS1xcHBUrVsTAwKDE2yxBwbVNlSpV4s033yw2cHNycrT2XfTOJomJiTg4OBR7zUVGRgbZ2dk6x7oK65R2/Kk4eXl5rF+/nh49elCmTJl/vZ3SSEpKwtTU9JnaK4T4D13XeZXGs1zn9czhJYQQQrxs8jBKIYQQekfCSwghhN6R8BJCiNdMTEwMS5YseW71IyMjyc3NJTg4mNjYWGJiYkhISCAqKorQ0NDn0eSX7qXf21AIIYSmwptiF0pMTCQlJUWrvPBOPHv37lVujAAFT3yIj49n5cqVGvV9fX2xt7cnLS2NvXv3Kk+U37NnDyNGjFCez5ecnAwUzJbWlzvPSHgJIcQrFhwcrFVmZ2dHcHAwycnJJCYmUqNGDRo2bEiDBg24du0abdu2VZ4rWJz169eTlpaGjY0NeXl53L17l3v37nH69GkcHR25e/cuFy9eJDExkZMnT3Lz5k1q166tdT9XXX777Tfs7e3p1KkTUDCDOSAggCtXrqBSqfD09KRHjx4al60cP36ciIiIUj+EuCQSXkII8YoNGzaM/Px8Vq1axeDBgzUueQkKCqJmzZpa1yZaWlqybNmyYrfn5eWlbEOlUmFra0t8fDw3b94kPj4eX19f7t69S0ZGBr1796Z8+fLMmjWLgQMH/mNb7927h7+/P9evX9e4j+mBAwd4/PgxX3/9Nfn5+cyZM4eTJ0/y1ltvkZmZSVBQEEePHsXNze3fHCItEl5CCPEaUKlUGBoaEhkZibe3N1BwjWZERAQTJ07UqDtkyBDMzMy0ns5x6NAhDhw4QN26dWnSpAlmZmYYGBiQlZXF/fv3adiwIdWrV+fMmTNYW1vj7OzMlStXcHBwIC8vTwm8n3/+GQcHB7p3767VzrCwMBo3bqx1YwUfHx/atGmDgYEBaWlpZGVlKddTnj59GnNzc/r27cvx48efy/GS8BJCiNfE22+/zbJly2jYsCHGxsbs27cPDw8P5fFKhZ58ukNWVharVq0C4LPPPtO4609WVhYxMTF88MEHhIaGUq9ePZo2bcqmTZto1aoVhw8fpkqVKhp31+nbt6/OC4gLn2Zx8+ZNjXKVSoWxsTE7d+7k4MGDODs7K887LLy7T9FbvD0rCS8hhHhNVKhQgbp167J582aaN29OWFiY1vPxUlJStHovWVlZXLlyha5duxIREaGUOzg44OLiQkZGBr/88gspKSnKg3ULl/32229YWVlRp04dZb3iHs9UWp07d+bdd99l7dq1bNiwoVSnIv8NmSovhBCvka5du3Lnzh3mzZvH4MGDtWb/GRgYYGpqqvUyNDTUKjM2NqZMmTJ06tSJx48fM27cODw9PcnNzaVt27YYGRlRs2ZNjh07Rv369Z+p3VevXlXuhWpgYEDjxo21emfPk/S8hBDiNZGVlcW+fftISUnBw8OD7du38/7772s8WdzS0pLmzZtrrJeamkpISIhWeaHr169jbGzMsWPHOHnyJB9++CGWlpZkZWVx69YtjIyMSE1NxdbWFih4hp6hoaHWQ2lLEh0dzbVr1xg9ejQqlYqIiIh/vJn4s5DwEkKIV+zGjRscP36cqKgovLy8mDJlCqamply9epUtW7aQn59PkyZNqF+/frFPM8/Pzy/xBt7e3t6oVCp2797NG2+8QWBgIN26dWPDhg00bdqUihUrsnjxYoYOHYqzszP+/v46J2zo0qFDB2W2oUqlokaNGvj6+v6r41EacmNeIYR4xbZu3UqlSpWoV69esU+fiI+P5/jx43h4eFCtWjWl/OjRo4SEhKBWq3FxcWHIkCFa6+bm5rJgwQJq1KhBu3btsLS05NGjR4SFhVGzZk3lWYZxcXGcPXtWbx4XJOElhBBC78iEDSGEEHpHwksIIYTekfASQgihdyS8hBBC6B0JLyGEEHrnma/z6hz04ubxCyGE+O+1s9u2f72u9LyEEELoHQkvIYQQekfCSwghhN6R8BJCCKF3JLyEEELoHQkvIYQQekfCSwghhN6R8BICUKH7WUi62JjavICW6BcDlQGOFg4lPktKiBdBwks8N20rtcHYQPtZRK+zKtYuzGo2g5lNp1PfsZ7Oeh/U6o+DuQMA9Rzq8rZrRwbV/gAvp8bPpR3VbaphoNL+31GFqthyB3MHjAxe7bNkjQyM+Mp7Cj2qd2eK1yQMVYavtD3if4uEl3gurE2sGV1vBAYqA0wMjTVexQWadwUvxtb/uNhtta7Uko/rjXou7api7UJ1m2o6X33f7MOi00v4OmIW71Z9W+d2WldshY1pWQCi/o6iXaW27IjexduuHZ+5jYYqQ35sPRdzI3OlrGrZqjR2eov3a/Sgt/v7Wut81+IbyluU19jGk68ne0M1ylWnnkPdEl8VLCtorGNvbs/Sdj8V225X6ypcS7rOsrM/k5iWiLOV87McBiGeyqv96Sb+a9Rx8ESNmp99lmiUG2CIqZEJvXf11yg3NzLTedrN3MhcCYpn1efNXtia2upcbmNmw9uunfg742/iUxMAqF6umlbgGhsYU6VsFYwNC8q3R+/E3MicGUdnPZd2PiklO4Wp3pOYdvhrpjeZytH4Y9xMvgmApbEl1qbWxKfFA1DW1JqFbX7U2kbIzX1suBygvG/6RhMqWDrp3GfFMs4cT4xk7YX1SpmByoAyJmWKrR+bcodBHv9Ht2pdcLV2JTE94d98VCH+FQkv8Vx0rOLDkjPL+Cs2TKPctWwVpnlPfi77MFQZYmNqw9+Zf+NkWZ43bd019tfZ7V323zpIem66Uvbd8bklbrNn9e40cmrIjuhd7L7xBwDvur6DtYm1Rj1LYwvaV25LWs5/tp2tzuLC3xefx0fTcj/jPr9fCsDNxpXvT8wlNSdFWVbZuhKxKXcofAj646xkBgV/+I/b/PXCuhKX93Z/HzMjs1K3MTMvE79j39HCuQWzjvmRnZdT6nWFeFYSXuKZveXUEEdzR8LjDmstsze3Iynz8VNtT4UKNWqtcjtzWz5v9Cmfh00iOy+b92v00Aivd13fIeTmvqfal4OFA6funuZI/FGlbMEp7dNkqzusYNX5X7iWdP2ptv80bEzLkpaTprzff/tAsfWsja1JzU59Ye34JyaGxtS2q42XU2MaV2hESnaqzrYK8aJIeIlnUt6iPKPrjWTeifnkqvO0lteyrcXVR9eeapvmRuak52Rold9Lv4+VsRVlTKx4mPkIgHJmNjzKTEKlUmFiaExWXtZT7au2XS1WnF+lVV6pTCXeq/oOy87+rLVsiMdADt05rBFkbzk1oqFjg1Lt88/b+4hOitEq/7H1XO6nP+DUvdOcuneaqAdRxR5TC2MLjR4gFPRK8/K16z4PRgZGtKvclhrlqlOjXHUqWFbgyqMrHE88wZawbdzPuK9Rv6tblxJPTxa19uJ6MnK1/9ZC/BMJL/FMGldoxO+XAoj6+4LWMkOVIS0qNmPJmeVay9T5+agp/svWydKJ++n3i10W9fcFPO09OBIfwbn7UXjaexB2J5xKVpW4kxL3VG2vblMNG9OyXHigfeqvj3svbiXfKna9+NRE+tfsqzHelZqTyt30e6Xab2Zu8QH7YcgIKlo508CxPh/U7E8FSyeOJkQQdiec8w+iUOcX9EaNDIzIVecq61WwdGJ6k2lMPDSZx1lP18stDTNDM960defqo2v8cWMvt1NuK20pzqOsh8XOkCxOSdsRoiQSXuKZ7IzerXNZ12qdSctJ5/S9M1rLQu+EEXonTKtchYq6DnVYelY78ACCb+4lT13whbfp6malp9WmUiuOJkSUut2GKkM+9BzCpqtbtXosFcs4U8+xDkvOLCt23X2399HLvQfu5Wpw5dFVAC79fZlLf18u9f6Lo85Xc+nhZS49vMzvl/1xtHCgpXMLhnoMZsu1bcrxyshNx8L4PzMTP2kwhm3Xg15IcEFBMOs6FsUJuxP+QtohRFEyVV68EB2r+NCrRk/mRc5/qvXaVGqNOl/N2fvnil0enRSjzLp7mPmItJx0qpatSpM3vDkYG1qqfZgYmvBZowlk52WzK0Y7fPu492Jn9G6NiR9F5arzCLq+g541upfuQ/1L99Lvs/naVsYeHK8R9Gk56VgYWwBgZWxFdZtqTz3WV1q56lxMDU1fyLaFeBbS8xLPjZGBEXUdPPGt1g17c3smHZpCbEpsqdY1UBnQqUpHBtTsy9cR3ygz6UqiUqloU7E1fd/szdzIH8jMzSyxvpWxFc2dm/J+jZ5c+Psi3xz7VqvXZWVsRS27msWOdeXznzaF3NpHb/f3sTe340HG36X6jM/LvfT7lLdwBCAtN4176ffp4taZP24Gk52XDRRM7bc3tyMhLVFZz8W6comzCe3N7UgtMmEEICkrCRUq3GyqFjtOJ8SrIuElntmouiOoZF2RKtYuxCTd4EDsQf6KDSvVBILmzs2oZVeTJhW8SUxLZHL4NG7qGGsq1NjpLZq84UVtu1qcux/FxEOTeZj5UGf9d1w70cHFB0cLB87cP8u8yB+59LD4U3ypOal89OdIctV5VCzjzNtVOpGem46NqQ3J2clKvczcTD76c6TWxImXIT4tnjLGZShjYkVKdipTD0+nz5vv83P7JahUKgxVhqjz8zl974zGzMmOVTrgbPVGidu+ckdzxqg6X81vlzbwXfPZxKfFFzuRBuDriG/+8ceDEM+TKr80P3FL0DnI93m1Reipt5wa8igziTspcWTmPd0X2P/VGsDjrGRO3jtZ6gkXnvYeqFBx+dEVpadRkoplnFGhIj414alm5JUzs6GBY33KmJThbtq9pxpTexoqlYrPG01g4anFpZ4t2e/NPvx5a7/WTD9DlSFq1KXquT4NM0MznCzL67z9V/TjGJl8IZ7azm7b/vW6El5CCCFeiWcJL5mwIYQQQu9IeAkhhNA7El5CCCH0joSXEEIIvSPhJYQQQu9IeAkhhNA7El5CCCH0joSXEEIIvSPhJYQQQu888x02hBBCiJdNel5CCCH0joSXEEIIvSPhJYQQQu9IeAkhhNA7El5CCCH0joSXEEIIvSPhJYQQQu9IeAkhhNA7El5CCCH0joSXEEIIvSPhJYQQQu9IeAkhhNA7El5CCCH0joSXEEIIvSPhJYQQQu9IeAkhhNA7El5CCCH0joSXEEIIvSPhJYQQQu9IeAkhhNA7El5CCCH0joSXEEIIvSPhJYQQQu9IeAkhhNA7El5CCCH0joSXEEIIvSPhJYQQQu9IeAkhhNA7El5CCCH0joSXEEIIvSPhJYQQQu9IeAkhhNA7El5CCCH0joSXEEIIvSPhJYQQQu9IeAkhhNA7/w9bC5Q8NjxmswAAAABJRU5ErkJggg==;" vertex="1" parent="1">
                    <mxGeometry x="-631" y="140" width="290.39" height="380" as="geometry"/>
                </mxCell>
            </root>
        </mxGraphModel>
    </diagram>
</mxfile>